{
  "source": "C:\\Users\\Peter\\Desktop\\stuff\\MIUN\\quantitative_research\\video_compression\\videos\\BVI-HD\\BVI-HD_CDVL_videos\\ORIG\\Hamster_1920x1080_60fps.mp4",
  "output": "C:\\Users\\Peter\\Desktop\\stuff\\MIUN\\quantitative_research\\video_compression\\compressed_videos\\BVI-HD\\hevc\\1\\Hamster_1920x1080_60fps_hevc.mp4",
  "codec": "hevc",
  "ok": "Input #0, mov,mp4,m4a,3gp,3g2,mj2, from 'C:\\Users\\Peter\\Desktop\\stuff\\MIUN\\quantitative_research\\video_compression\\videos\\BVI-HD\\BVI-HD_CDVL_videos\\ORIG\\Hamster_1920x1080_60fps.mp4':\n  Metadata:\n    major_brand     : isom\n    minor_version   : 512\n    compatible_brands: isomiso2avc1mp41\n    encoder         : Lavf54.28.101\n  Duration: 00:00:05.00, start: 0.000000, bitrate: 208485 kb/s\n  Stream #0:0[0x1](und): Video: h264 (High 4:4:4 Predictive) (avc1 / 0x31637661), yuv420p(progressive), 1920x1080, 208481 kb/s, 60 fps, 60 tbr, 60 tbn (default)\n    Metadata:\n      handler_name    : VideoHandler\n      vendor_id       : [0][0][0][0]\n[out#0/mp4 @ 00000263ab89e040] Codec AVOption b:a (set bitrate (in bits/s)) has not been used for any stream. The most likely reason is either wrong type (e.g. a video option with no video streams) or that it is a private option of some decoder which was not actually used for any stream.\nStream mapping:\n  Stream #0:0 -> #0:0 (h264 (native) -> hevc (libx265))\nPress [q] to stop, [?] for help\n[libx265 @ 00000263aaf6c740] Unknown option: \"aq-mode.\nx265 [info]: HEVC encoder version 4.1+190-8f11c33ac\nx265 [info]: build info [Windows][GCC 15.1.0][64 bit] 10bit\nx265 [info]: using cpu capabilities: MMX2 SSE2Fast LZCNT SSSE3 SSE4.2 AVX FMA3 BMI2 AVX2\nx265 [info]: Main 10 profile, Level-4.1 (Main tier)\nx265 [info]: Thread pool created using 12 threads\nx265 [info]: Slices                              : 1\nx265 [info]: frame threads / pool features       : 3 / wpp(17 rows)\nx265 [info]: Coding QT: max CU size, min CU size : 64 / 8\nx265 [info]: Residual QT: max TU size, max depth : 32 / 1 inter / 1 intra\nx265 [info]: ME / range / subpel / merge         : star / 57 / 3 / 3\nx265 [info]: Keyframe min / max / scenecut / bias  : 25 / 250 / 40 / 5.00 \nx265 [info]: Lookahead / bframes / badapt        : 25 / 4 / 2\nx265 [info]: b-pyramid / weightp / weightb       : 1 / 1 / 0\nx265 [info]: References / ref-limit  cu / depth  : 4 / on / on\nx265 [info]: AQ: mode / str / qg-size / cu-tree  : 2 / 1.0 / 32 / 1\nx265 [info]: Rate Control / qCompress            : ABR-1000 kbps / 0.60\nx265 [info]: VBV/HRD buffer / max-rate / init    : 1000 / 1000 / 0.750\nx265 [info]: tools: rect limit-modes rd=4 psy-rd=2.00 rdoq=2 psy-rdoq=1.00\nx265 [info]: tools: rskip mode=1 signhide tmvp strong-intra-smoothing lslices=4\nx265 [info]: tools: deblock sao dhdr10-info\nOutput #0, mp4, to 'C:\\Users\\Peter\\Desktop\\stuff\\MIUN\\quantitative_research\\video_compression\\compressed_videos\\BVI-HD\\hevc\\1\\Hamster_1920x1080_60fps_hevc.mp4':\n  Metadata:\n    major_brand     : isom\n    minor_version   : 512\n    compatible_brands: isomiso2avc1mp41\n    encoder         : Lavf62.3.100\n  Stream #0:0(und): Video: hevc (hev1 / 0x31766568), yuv420p10le(tv, progressive), 1920x1080, q=2-31, 1000 kb/s, 60 fps, 15360 tbn (default)\n    Metadata:\n      encoder         : Lavc62.11.100 libx265\n      handler_name    : VideoHandler\n      vendor_id       : [0][0][0][0]\n    Side data:\n      cpb: bitrate max/min/avg: 1000000/0/1000000 buffer size: 1000000 vbv_delay: N/A\nframe=    0 fps=0.0 q=0.0 size=       0KiB time=N/A bitrate=N/A speed=N/A elapsed=0:00:01.16    \nframe=    0 fps=0.0 q=0.0 size=       0KiB time=N/A bitrate=N/A speed=N/A elapsed=0:00:02.02    \nframe=    0 fps=0.0 q=0.0 size=       0KiB time=N/A bitrate=N/A speed=N/A elapsed=0:00:02.76    \nframe=    0 fps=0.0 q=0.0 size=       0KiB time=N/A bitrate=N/A speed=N/A elapsed=0:00:03.37    \nframe=    0 fps=0.0 q=0.0 size=       0KiB time=N/A bitrate=N/A speed=N/A elapsed=0:00:03.94    \nframe=    0 fps=0.0 q=0.0 size=       0KiB time=N/A bitrate=N/A speed=N/A elapsed=0:00:04.48    \nframe=    0 fps=0.0 q=0.0 size=       0KiB time=N/A bitrate=N/A speed=N/A elapsed=0:00:04.99    \nframe=    0 fps=0.0 q=0.0 size=       0KiB time=N/A bitrate=N/A speed=N/A elapsed=0:00:05.66    \nframe=    0 fps=0.0 q=0.0 size=       0KiB time=N/A bitrate=N/A speed=N/A elapsed=0:00:06.25    \nframe=    0 fps=0.0 q=0.0 size=       0KiB time=N/A bitrate=N/A speed=N/A elapsed=0:00:06.81    \nframe=    0 fps=0.0 q=0.0 size=       0KiB time=N/A bitrate=N/A speed=N/A elapsed=0:00:07.64    \nframe=    0 fps=0.0 q=0.0 size=       0KiB time=N/A bitrate=N/A speed=N/A elapsed=0:00:08.40    \nframe=    0 fps=0.0 q=0.0 size=       0KiB time=N/A bitrate=N/A speed=N/A elapsed=0:00:09.37    \nframe=    0 fps=0.0 q=0.0 size=       0KiB time=N/A bitrate=N/A speed=N/A elapsed=0:00:10.25    \nframe=    0 fps=0.0 q=0.0 size=       0KiB time=N/A bitrate=N/A speed=N/A elapsed=0:00:10.76    \nframe=    0 fps=0.0 q=0.0 size=       0KiB time=N/A bitrate=N/A speed=N/A elapsed=0:00:11.28    \nframe=    0 fps=0.0 q=0.0 size=       0KiB time=N/A bitrate=N/A speed=N/A elapsed=0:00:11.79    \nframe=    0 fps=0.0 q=0.0 size=       0KiB time=N/A bitrate=N/A speed=N/A elapsed=0:00:12.31    \nframe=    0 fps=0.0 q=0.0 size=       0KiB time=N/A bitrate=N/A speed=N/A elapsed=0:00:12.84    \nframe=    0 fps=0.0 q=0.0 size=       0KiB time=N/A bitrate=N/A speed=N/A elapsed=0:00:13.35    \nframe=    0 fps=0.0 q=0.0 size=       0KiB time=N/A bitrate=N/A speed=N/A elapsed=0:00:13.86    \nframe=    0 fps=0.0 q=0.0 size=       0KiB time=N/A bitrate=N/A speed=N/A elapsed=0:00:14.38    \nframe=    1 fps=0.1 q=46.1 size=       0KiB time=-00:00:00.01 bitrate=N/A speed=N/A elapsed=0:00:14.89    \nframe=    3 fps=0.2 q=49.8 size=       0KiB time=00:00:00.01 bitrate=  21.1kbits/s speed=0.00108x elapsed=0:00:15.41    \nframe=    6 fps=0.4 q=44.1 size=       0KiB time=00:00:00.06 bitrate=   5.3kbits/s speed=0.00418x elapsed=0:00:15.93    \nframe=    7 fps=0.4 q=46.3 size=       0KiB time=00:00:00.08 bitrate=   4.2kbits/s speed=0.00507x elapsed=0:00:16.43    \nframe=    7 fps=0.4 q=46.3 size=       0KiB time=00:00:00.08 bitrate=   4.2kbits/s speed=0.00492x elapsed=0:00:16.95    \nframe=    7 fps=0.4 q=46.3 size=       0KiB time=00:00:00.08 bitrate=   4.2kbits/s speed=0.00477x elapsed=0:00:17.47    \nframe=    7 fps=0.4 q=46.3 size=       0KiB time=00:00:00.08 bitrate=   4.2kbits/s speed=0.00463x elapsed=0:00:17.98    \nframe=    7 fps=0.4 q=46.3 size=       0KiB time=00:00:00.08 bitrate=   4.2kbits/s speed=0.0045x elapsed=0:00:18.49    \nframe=    7 fps=0.4 q=46.3 size=       0KiB time=00:00:00.08 bitrate=   4.2kbits/s speed=0.00438x elapsed=0:00:19.01    \nframe=    7 fps=0.4 q=46.3 size=       0KiB time=00:00:00.08 bitrate=   4.2kbits/s speed=0.00427x elapsed=0:00:19.53    \nframe=    7 fps=0.3 q=46.3 size=       0KiB time=00:00:00.08 bitrate=   4.2kbits/s speed=0.00416x elapsed=0:00:20.05    \nframe=    7 fps=0.3 q=46.3 size=       0KiB time=00:00:00.08 bitrate=   4.2kbits/s speed=0.00405x elapsed=0:00:20.56    \nframe=    7 fps=0.3 q=46.3 size=       0KiB time=00:00:00.08 bitrate=   4.2kbits/s speed=0.00395x elapsed=0:00:21.08    \nframe=    7 fps=0.3 q=46.3 size=       0KiB time=00:00:00.08 bitrate=   4.2kbits/s speed=0.00386x elapsed=0:00:21.60    \nframe=    7 fps=0.3 q=46.3 size=       0KiB time=00:00:00.08 bitrate=   4.2kbits/s speed=0.00377x elapsed=0:00:22.11    \nframe=    8 fps=0.4 q=46.1 size=       0KiB time=00:00:00.10 bitrate=   3.5kbits/s speed=0.00442x elapsed=0:00:22.63    \nframe=    8 fps=0.3 q=46.1 size=       0KiB time=00:00:00.10 bitrate=   3.5kbits/s speed=0.00432x elapsed=0:00:23.13    \nframe=    8 fps=0.3 q=46.1 size=       0KiB time=00:00:00.10 bitrate=   3.5kbits/s speed=0.00423x elapsed=0:00:23.65    \nframe=    8 fps=0.3 q=46.1 size=       0KiB time=00:00:00.10 bitrate=   3.5kbits/s speed=0.00414x elapsed=0:00:24.17    \nframe=    8 fps=0.3 q=46.1 size=       0KiB time=00:00:00.10 bitrate=   3.5kbits/s speed=0.00405x elapsed=0:00:24.68    \nframe=    8 fps=0.3 q=46.1 size=       0KiB time=00:00:00.10 bitrate=   3.5kbits/s speed=0.00397x elapsed=0:00:25.20    \nframe=    8 fps=0.3 q=46.1 size=       0KiB time=00:00:00.10 bitrate=   3.5kbits/s speed=0.00389x elapsed=0:00:25.72    \nframe=    8 fps=0.3 q=46.1 size=       0KiB time=00:00:00.10 bitrate=   3.5kbits/s speed=0.00381x elapsed=0:00:26.24    \nframe=    8 fps=0.3 q=46.1 size=       0KiB time=00:00:00.10 bitrate=   3.5kbits/s speed=0.00374x elapsed=0:00:26.75    \nframe=    8 fps=0.3 q=46.1 size=       0KiB time=00:00:00.10 bitrate=   3.5kbits/s speed=0.00367x elapsed=0:00:27.27    \nframe=    9 fps=0.3 q=47.0 size=       0KiB time=00:00:00.11 bitrate=   3.0kbits/s speed=0.0042x elapsed=0:00:27.79    \nframe=   10 fps=0.4 q=47.2 size=       0KiB time=00:00:00.13 bitrate=   2.6kbits/s speed=0.00471x elapsed=0:00:28.29    \nframe=   11 fps=0.4 q=42.3 size=       0KiB time=00:00:00.15 bitrate=   2.3kbits/s speed=0.00521x elapsed=0:00:28.81    \nframe=   12 fps=0.4 q=46.5 size=       0KiB time=00:00:00.16 bitrate=   2.1kbits/s speed=0.00568x elapsed=0:00:29.32    \nframe=   14 fps=0.5 q=46.6 size=       0KiB time=00:00:00.20 bitrate=   1.8kbits/s speed=0.0067x elapsed=0:00:29.84    \nframe=   16 fps=0.5 q=43.8 size=       0KiB time=00:00:00.23 bitrate=   1.5kbits/s speed=0.00768x elapsed=0:00:30.37    \nframe=   16 fps=0.5 q=43.8 size=       0KiB time=00:00:00.23 bitrate=   1.5kbits/s speed=0.00755x elapsed=0:00:30.89    \nframe=   16 fps=0.5 q=43.8 size=       0KiB time=00:00:00.23 bitrate=   1.5kbits/s speed=0.00743x elapsed=0:00:31.42    \nframe=   16 fps=0.5 q=43.8 size=       0KiB time=00:00:00.23 bitrate=   1.5kbits/s speed=0.0073x elapsed=0:00:31.94    \nframe=   16 fps=0.5 q=43.8 size=       0KiB time=00:00:00.23 bitrate=   1.5kbits/s speed=0.00718x elapsed=0:00:32.47    \nframe=   17 fps=0.5 q=46.1 size=       0KiB time=00:00:00.25 bitrate=   1.4kbits/s speed=0.00757x elapsed=0:00:33.01    \nframe=   17 fps=0.5 q=46.1 size=       0KiB time=00:00:00.25 bitrate=   1.4kbits/s speed=0.00745x elapsed=0:00:33.57    \nframe=   17 fps=0.5 q=46.1 size=       0KiB time=00:00:00.25 bitrate=   1.4kbits/s speed=0.00733x elapsed=0:00:34.09    \nframe=   17 fps=0.5 q=46.1 size=       0KiB time=00:00:00.25 bitrate=   1.4kbits/s speed=0.00722x elapsed=0:00:34.61    \nframe=   17 fps=0.5 q=46.1 size=       0KiB time=00:00:00.25 bitrate=   1.4kbits/s speed=0.00708x elapsed=0:00:35.29    \nframe=   17 fps=0.5 q=46.1 size=       0KiB time=00:00:00.25 bitrate=   1.4kbits/s speed=0.00697x elapsed=0:00:35.84    \nframe=   17 fps=0.5 q=46.1 size=       0KiB time=00:00:00.25 bitrate=   1.4kbits/s speed=0.00688x elapsed=0:00:36.36    \nframe=   17 fps=0.5 q=46.1 size=       0KiB time=00:00:00.25 bitrate=   1.4kbits/s speed=0.00678x elapsed=0:00:36.89    \nframe=   17 fps=0.5 q=46.1 size=       0KiB time=00:00:00.25 bitrate=   1.4kbits/s speed=0.00668x elapsed=0:00:37.41    \nframe=   17 fps=0.4 q=46.1 size=       0KiB time=00:00:00.25 bitrate=   1.4kbits/s speed=0.00659x elapsed=0:00:37.96    \nframe=   18 fps=0.5 q=45.9 size=       0KiB time=00:00:00.26 bitrate=   1.3kbits/s speed=0.00693x elapsed=0:00:38.47    \nframe=   18 fps=0.5 q=45.9 size=       0KiB time=00:00:00.26 bitrate=   1.3kbits/s speed=0.00684x elapsed=0:00:38.99    \nframe=   18 fps=0.5 q=45.9 size=       0KiB time=00:00:00.26 bitrate=   1.3kbits/s speed=0.00675x elapsed=0:00:39.51    \nframe=   18 fps=0.4 q=45.9 size=       0KiB time=00:00:00.26 bitrate=   1.3kbits/s speed=0.00665x elapsed=0:00:40.10    \nframe=   19 fps=0.5 q=46.3 size=       0KiB time=00:00:00.28 bitrate=   1.2kbits/s speed=0.00695x elapsed=0:00:40.74    \nframe=   19 fps=0.5 q=46.3 size=       0KiB time=00:00:00.28 bitrate=   1.2kbits/s speed=0.00686x elapsed=0:00:41.33    \nframe=   20 fps=0.5 q=42.0 size=       0KiB time=00:00:00.30 bitrate=   1.2kbits/s speed=0.00717x elapsed=0:00:41.85    \nframe=   21 fps=0.5 q=44.3 size=       0KiB time=00:00:00.31 bitrate=   1.1kbits/s speed=0.00748x elapsed=0:00:42.36    \nframe=   22 fps=0.5 q=45.9 size=       0KiB time=00:00:00.33 bitrate=   1.1kbits/s speed=0.00777x elapsed=0:00:42.88    \nframe=   23 fps=0.5 q=45.5 size=       0KiB time=00:00:00.35 bitrate=   1.0kbits/s speed=0.00806x elapsed=0:00:43.44    \nframe=   24 fps=0.5 q=41.0 size=       0KiB time=00:00:00.36 bitrate=   1.0kbits/s speed=0.00834x elapsed=0:00:43.95    \nframe=   25 fps=0.6 q=43.9 size=       0KiB time=00:00:00.38 bitrate=   0.9kbits/s speed=0.00862x elapsed=0:00:44.46    \nframe=   26 fps=0.6 q=45.4 size=       0KiB time=00:00:00.40 bitrate=   0.9kbits/s speed=0.00888x elapsed=0:00:45.04    \nframe=   26 fps=0.6 q=45.4 size=       0KiB time=00:00:00.40 bitrate=   0.9kbits/s speed=0.00878x elapsed=0:00:45.56    \nframe=   26 fps=0.6 q=45.4 size=       0KiB time=00:00:00.40 bitrate=   0.9kbits/s speed=0.00868x elapsed=0:00:46.08    \nframe=   26 fps=0.6 q=45.4 size=       0KiB time=00:00:00.40 bitrate=   0.9kbits/s speed=0.00858x elapsed=0:00:46.62    \nframe=   26 fps=0.6 q=45.4 size=       0KiB time=00:00:00.40 bitrate=   0.9kbits/s speed=0.00848x elapsed=0:00:47.14    \nframe=   26 fps=0.5 q=45.4 size=       0KiB time=00:00:00.40 bitrate=   0.9kbits/s speed=0.00839x elapsed=0:00:47.68    \nframe=   26 fps=0.5 q=45.4 size=       0KiB time=00:00:00.40 bitrate=   0.9kbits/s speed=0.0083x elapsed=0:00:48.19    \nframe=   26 fps=0.5 q=45.4 size=       0KiB time=00:00:00.40 bitrate=   0.9kbits/s speed=0.00821x elapsed=0:00:48.72    \nframe=   26 fps=0.5 q=45.4 size=       0KiB time=00:00:00.40 bitrate=   0.9kbits/s speed=0.00812x elapsed=0:00:49.26    \nframe=   26 fps=0.5 q=45.4 size=       0KiB time=00:00:00.40 bitrate=   0.9kbits/s speed=0.00803x elapsed=0:00:49.78    \nframe=   26 fps=0.5 q=45.4 size=       0KiB time=00:00:00.40 bitrate=   0.9kbits/s speed=0.00795x elapsed=0:00:50.29    \nframe=   26 fps=0.5 q=45.4 size=       0KiB time=00:00:00.40 bitrate=   0.9kbits/s speed=0.00787x elapsed=0:00:50.81    \nframe=   26 fps=0.5 q=45.4 size=       0KiB time=00:00:00.40 bitrate=   0.9kbits/s speed=0.00779x elapsed=0:00:51.33    \nframe=   26 fps=0.5 q=45.4 size=       0KiB time=00:00:00.40 bitrate=   0.9kbits/s speed=0.00772x elapsed=0:00:51.84    \nframe=   26 fps=0.5 q=45.4 size=       0KiB time=00:00:00.40 bitrate=   0.9kbits/s speed=0.00764x elapsed=0:00:52.36    \nframe=   26 fps=0.5 q=45.4 size=       0KiB time=00:00:00.40 bitrate=   0.9kbits/s speed=0.00756x elapsed=0:00:52.88    \nframe=   26 fps=0.5 q=45.4 size=       0KiB time=00:00:00.40 bitrate=   0.9kbits/s speed=0.00749x elapsed=0:00:53.40    \nframe=   26 fps=0.5 q=45.4 size=       0KiB time=00:00:00.40 bitrate=   0.9kbits/s speed=0.00742x elapsed=0:00:53.92    \nframe=   26 fps=0.5 q=45.4 size=       0KiB time=00:00:00.40 bitrate=   0.9kbits/s speed=0.00735x elapsed=0:00:54.43    \nframe=   26 fps=0.5 q=45.4 size=       0KiB time=00:00:00.40 bitrate=   0.9kbits/s speed=0.00728x elapsed=0:00:54.95    \nframe=   27 fps=0.5 q=45.3 size=       0KiB time=00:00:00.41 bitrate=   0.8kbits/s speed=0.00751x elapsed=0:00:55.50    \nframe=   28 fps=0.5 q=40.9 size=       0KiB time=00:00:00.43 bitrate=   0.8kbits/s speed=0.00773x elapsed=0:00:56.02    \nframe=   28 fps=0.5 q=40.9 size=       0KiB time=00:00:00.43 bitrate=   0.8kbits/s speed=0.00766x elapsed=0:00:56.55    \nframe=   29 fps=0.5 q=43.0 size=       0KiB time=00:00:00.45 bitrate=   0.8kbits/s speed=0.00788x elapsed=0:00:57.07    \nframe=   30 fps=0.5 q=44.9 size=       0KiB time=00:00:00.46 bitrate=   0.8kbits/s speed=0.0081x elapsed=0:00:57.59    \nframe=   30 fps=0.5 q=44.9 size=       0KiB time=00:00:00.46 bitrate=   0.8kbits/s speed=0.00803x elapsed=0:00:58.11    \nframe=   31 fps=0.5 q=45.3 size=       0KiB time=00:00:00.48 bitrate=   0.7kbits/s speed=0.00824x elapsed=0:00:58.64    \nframe=   31 fps=0.5 q=45.3 size=       0KiB time=00:00:00.48 bitrate=   0.7kbits/s speed=0.00817x elapsed=0:00:59.19    \nframe=   31 fps=0.5 q=45.3 size=       0KiB time=00:00:00.48 bitrate=   0.7kbits/s speed=0.0081x elapsed=0:00:59.70    \nframe=   31 fps=0.5 q=45.3 size=       0KiB time=00:00:00.48 bitrate=   0.7kbits/s speed=0.00803x elapsed=0:01:00.21    \nframe=   31 fps=0.5 q=45.3 size=       0KiB time=00:00:00.48 bitrate=   0.7kbits/s speed=0.00796x elapsed=0:01:00.73    \nframe=   32 fps=0.5 q=41.1 size=       0KiB time=00:00:00.50 bitrate=   0.7kbits/s speed=0.00816x elapsed=0:01:01.25    \nframe=   33 fps=0.5 q=43.6 size=       0KiB time=00:00:00.51 bitrate=   0.7kbits/s speed=0.00836x elapsed=0:01:01.80    \nframe=   33 fps=0.5 q=43.6 size=       0KiB time=00:00:00.51 bitrate=   0.7kbits/s speed=0.00829x elapsed=0:01:02.32    \nframe=   33 fps=0.5 q=43.6 size=       0KiB time=00:00:00.51 bitrate=   0.7kbits/s speed=0.00822x elapsed=0:01:02.85    \nframe=   33 fps=0.5 q=43.6 size=       0KiB time=00:00:00.51 bitrate=   0.7kbits/s speed=0.00815x elapsed=0:01:03.36    \nframe=   33 fps=0.5 q=43.6 size=       0KiB time=00:00:00.51 bitrate=   0.7kbits/s speed=0.00809x elapsed=0:01:03.88    \nframe=   33 fps=0.5 q=43.6 size=       0KiB time=00:00:00.51 bitrate=   0.7kbits/s speed=0.00802x elapsed=0:01:04.42    \nframe=   33 fps=0.5 q=43.6 size=       0KiB time=00:00:00.51 bitrate=   0.7kbits/s speed=0.00795x elapsed=0:01:04.96    \nframe=   33 fps=0.5 q=43.6 size=       0KiB time=00:00:00.51 bitrate=   0.7kbits/s speed=0.00789x elapsed=0:01:05.48    \nframe=   34 fps=0.5 q=45.2 size=       0KiB time=00:00:00.53 bitrate=   0.7kbits/s speed=0.00808x elapsed=0:01:06.00    \nframe=   35 fps=0.5 q=45.4 size=       0KiB time=00:00:00.55 bitrate=   0.6kbits/s speed=0.00827x elapsed=0:01:06.52    \nframe=   36 fps=0.5 q=40.8 size=       0KiB time=00:00:00.56 bitrate=   0.6kbits/s speed=0.00845x elapsed=0:01:07.05    \nframe=   37 fps=0.5 q=43.8 size=       0KiB time=00:00:00.58 bitrate=   0.6kbits/s speed=0.00863x elapsed=0:01:07.58    \nframe=   38 fps=0.6 q=46.4 size=       0KiB time=00:00:00.60 bitrate=   0.6kbits/s speed=0.00881x elapsed=0:01:08.11    \nframe=   38 fps=0.6 q=46.4 size=       0KiB time=00:00:00.60 bitrate=   0.6kbits/s speed=0.00874x elapsed=0:01:08.63    \nframe=   38 fps=0.5 q=46.4 size=       0KiB time=00:00:00.60 bitrate=   0.6kbits/s speed=0.00868x elapsed=0:01:09.16    \nframe=   38 fps=0.5 q=46.4 size=       0KiB time=00:00:00.60 bitrate=   0.6kbits/s speed=0.00861x elapsed=0:01:09.68    \nframe=   38 fps=0.5 q=46.4 size=       0KiB time=00:00:00.60 bitrate=   0.6kbits/s speed=0.00855x elapsed=0:01:10.20    \nframe=   38 fps=0.5 q=46.4 size=       0KiB time=00:00:00.60 bitrate=   0.6kbits/s speed=0.00848x elapsed=0:01:10.73    \nframe=   39 fps=0.5 q=45.5 size=       0KiB time=00:00:00.61 bitrate=   0.6kbits/s speed=0.00865x elapsed=0:01:11.29    \nframe=   39 fps=0.5 q=45.5 size=       0KiB time=00:00:00.61 bitrate=   0.6kbits/s speed=0.00858x elapsed=0:01:11.83    \nframe=   40 fps=0.6 q=40.8 size=       0KiB time=00:00:00.63 bitrate=   0.6kbits/s speed=0.00875x elapsed=0:01:12.35    \nframe=   40 fps=0.5 q=40.8 size=       0KiB time=00:00:00.63 bitrate=   0.6kbits/s speed=0.00869x elapsed=0:01:12.88    \nframe=   41 fps=0.6 q=43.3 size=       0KiB time=00:00:00.65 bitrate=   0.5kbits/s speed=0.00886x elapsed=0:01:13.39    \nframe=   41 fps=0.6 q=43.3 size=       0KiB time=00:00:00.65 bitrate=   0.5kbits/s speed=0.00879x elapsed=0:01:13.92    \nframe=   42 fps=0.6 q=45.5 size=       0KiB time=00:00:00.66 bitrate=   0.5kbits/s speed=0.00895x elapsed=0:01:14.48    \nframe=   43 fps=0.6 q=45.3 size=       0KiB time=00:00:00.68 bitrate=   0.5kbits/s speed=0.00911x elapsed=0:01:15.00    \nframe=   44 fps=0.6 q=41.6 size=       0KiB time=00:00:00.70 bitrate=   0.5kbits/s speed=0.00927x elapsed=0:01:15.54    \nframe=   44 fps=0.6 q=41.6 size=       0KiB time=00:00:00.70 bitrate=   0.5kbits/s speed=0.0092x elapsed=0:01:16.07    \nframe=   45 fps=0.6 q=44.2 size=       0KiB time=00:00:00.71 bitrate=   0.5kbits/s speed=0.00935x elapsed=0:01:16.67    \nframe=   45 fps=0.6 q=44.2 size=       0KiB time=00:00:00.71 bitrate=   0.5kbits/s speed=0.00928x elapsed=0:01:17.19    \nframe=   45 fps=0.6 q=44.2 size=       0KiB time=00:00:00.71 bitrate=   0.5kbits/s speed=0.00922x elapsed=0:01:17.72    \nframe=   46 fps=0.6 q=45.3 size=       0KiB time=00:00:00.73 bitrate=   0.5kbits/s speed=0.00937x elapsed=0:01:18.25    \nframe=   46 fps=0.6 q=45.3 size=       0KiB time=00:00:00.73 bitrate=   0.5kbits/s speed=0.00931x elapsed=0:01:18.77    \nframe=   46 fps=0.6 q=45.3 size=       0KiB time=00:00:00.73 bitrate=   0.5kbits/s speed=0.00924x elapsed=0:01:19.33    \nframe=   46 fps=0.6 q=45.3 size=       0KiB time=00:00:00.73 bitrate=   0.5kbits/s speed=0.00918x elapsed=0:01:19.85    \nframe=   46 fps=0.6 q=45.3 size=       0KiB time=00:00:00.73 bitrate=   0.5kbits/s speed=0.00912x elapsed=0:01:20.38    \nframe=   46 fps=0.6 q=45.3 size=       0KiB time=00:00:00.73 bitrate=   0.5kbits/s speed=0.00906x elapsed=0:01:20.89    \nframe=   46 fps=0.6 q=45.3 size=       0KiB time=00:00:00.73 bitrate=   0.5kbits/s speed=0.00901x elapsed=0:01:21.42    \nframe=   46 fps=0.6 q=45.3 size=       0KiB time=00:00:00.73 bitrate=   0.5kbits/s speed=0.00895x elapsed=0:01:21.97    \nframe=   46 fps=0.6 q=45.3 size=       0KiB time=00:00:00.73 bitrate=   0.5kbits/s speed=0.00889x elapsed=0:01:22.51    \nframe=   46 fps=0.6 q=45.3 size=       0KiB time=00:00:00.73 bitrate=   0.5kbits/s speed=0.00883x elapsed=0:01:23.04    \nframe=   46 fps=0.6 q=45.3 size=       0KiB time=00:00:00.73 bitrate=   0.5kbits/s speed=0.00877x elapsed=0:01:23.63    \nframe=   46 fps=0.5 q=45.3 size=       0KiB time=00:00:00.73 bitrate=   0.5kbits/s speed=0.00871x elapsed=0:01:24.19    \nframe=   47 fps=0.6 q=44.9 size=       0KiB time=00:00:00.75 bitrate=   0.5kbits/s speed=0.00885x elapsed=0:01:24.72    \nframe=   47 fps=0.6 q=44.9 size=       0KiB time=00:00:00.75 bitrate=   0.5kbits/s speed=0.0088x elapsed=0:01:25.23    \nframe=   47 fps=0.5 q=44.9 size=       0KiB time=00:00:00.75 bitrate=   0.5kbits/s speed=0.00875x elapsed=0:01:25.75    \nframe=   47 fps=0.5 q=44.9 size=       0KiB time=00:00:00.75 bitrate=   0.5kbits/s speed=0.00869x elapsed=0:01:26.35    \nframe=   48 fps=0.6 q=45.3 size=       0KiB time=00:00:00.76 bitrate=   0.5kbits/s speed=0.00882x elapsed=0:01:26.88    \nframe=   49 fps=0.6 q=41.1 size=       0KiB time=00:00:00.78 bitrate=   0.4kbits/s speed=0.00896x elapsed=0:01:27.38    \nframe=   49 fps=0.6 q=41.1 size=       0KiB time=00:00:00.78 bitrate=   0.4kbits/s speed=0.00891x elapsed=0:01:27.92    \nframe=   49 fps=0.6 q=41.1 size=       0KiB time=00:00:00.78 bitrate=   0.4kbits/s speed=0.00885x elapsed=0:01:28.46    \nframe=   50 fps=0.6 q=43.9 size=       0KiB time=00:00:00.80 bitrate=   0.4kbits/s speed=0.00899x elapsed=0:01:28.98    \nframe=   50 fps=0.6 q=43.9 size=       0KiB time=00:00:00.80 bitrate=   0.4kbits/s speed=0.00894x elapsed=0:01:29.48    \nframe=   50 fps=0.6 q=43.9 size=       0KiB time=00:00:00.80 bitrate=   0.4kbits/s speed=0.00889x elapsed=0:01:30.00    \nframe=   50 fps=0.6 q=43.9 size=       0KiB time=00:00:00.80 bitrate=   0.4kbits/s speed=0.00884x elapsed=0:01:30.51    \nframe=   50 fps=0.5 q=43.9 size=       0KiB time=00:00:00.80 bitrate=   0.4kbits/s speed=0.00878x elapsed=0:01:31.09    \nframe=   50 fps=0.5 q=43.9 size=       0KiB time=00:00:00.80 bitrate=   0.4kbits/s speed=0.00873x elapsed=0:01:31.60    \nframe=   50 fps=0.5 q=43.9 size=       0KiB time=00:00:00.80 bitrate=   0.4kbits/s speed=0.00868x elapsed=0:01:32.13    \nframe=   50 fps=0.5 q=43.9 size=       0KiB time=00:00:00.80 bitrate=   0.4kbits/s speed=0.00863x elapsed=0:01:32.68    \nframe=   51 fps=0.5 q=46.1 size=       0KiB time=00:00:00.81 bitrate=   0.4kbits/s speed=0.00876x elapsed=0:01:33.20    \nframe=   51 fps=0.5 q=46.1 size=       0KiB time=00:00:00.81 bitrate=   0.4kbits/s speed=0.00871x elapsed=0:01:33.73    \nframe=   51 fps=0.5 q=46.1 size=       0KiB time=00:00:00.81 bitrate=   0.4kbits/s speed=0.00866x elapsed=0:01:34.25    \nframe=   51 fps=0.5 q=46.1 size=       0KiB time=00:00:00.81 bitrate=   0.4kbits/s speed=0.00862x elapsed=0:01:34.77    \nframe=   51 fps=0.5 q=46.1 size=       0KiB time=00:00:00.81 bitrate=   0.4kbits/s speed=0.00857x elapsed=0:01:35.32    \nframe=   51 fps=0.5 q=46.1 size=       0KiB time=00:00:00.81 bitrate=   0.4kbits/s speed=0.00852x elapsed=0:01:35.85    \nframe=   51 fps=0.5 q=46.1 size=       0KiB time=00:00:00.81 bitrate=   0.4kbits/s speed=0.00847x elapsed=0:01:36.38    \nframe=   51 fps=0.5 q=46.1 size=       0KiB time=00:00:00.81 bitrate=   0.4kbits/s speed=0.00843x elapsed=0:01:36.90    \nframe=   51 fps=0.5 q=46.1 size=       0KiB time=00:00:00.81 bitrate=   0.4kbits/s speed=0.00838x elapsed=0:01:37.46    \nframe=   51 fps=0.5 q=46.1 size=       0KiB time=00:00:00.81 bitrate=   0.4kbits/s speed=0.00833x elapsed=0:01:37.98    \nframe=   52 fps=0.5 q=45.7 size=       0KiB time=00:00:00.83 bitrate=   0.4kbits/s speed=0.00846x elapsed=0:01:38.50    \nframe=   53 fps=0.5 q=41.6 size=       0KiB time=00:00:00.85 bitrate=   0.4kbits/s speed=0.00858x elapsed=0:01:39.03    \nframe=   53 fps=0.5 q=41.6 size=       0KiB time=00:00:00.85 bitrate=   0.4kbits/s speed=0.00854x elapsed=0:01:39.56    \nframe=   54 fps=0.5 q=43.8 size=       0KiB time=00:00:00.86 bitrate=   0.4kbits/s speed=0.00866x elapsed=0:01:40.09    \nframe=   54 fps=0.5 q=43.8 size=       0KiB time=00:00:00.86 bitrate=   0.4kbits/s speed=0.00861x elapsed=0:01:40.67    \nframe=   54 fps=0.5 q=43.8 size=       0KiB time=00:00:00.86 bitrate=   0.4kbits/s speed=0.00856x elapsed=0:01:41.20    \nframe=   54 fps=0.5 q=43.8 size=       0KiB time=00:00:00.86 bitrate=   0.4kbits/s speed=0.00852x elapsed=0:01:41.73    \nframe=   54 fps=0.5 q=43.8 size=       0KiB time=00:00:00.86 bitrate=   0.4kbits/s speed=0.00848x elapsed=0:01:42.24    \nframe=   55 fps=0.5 q=45.8 size=       0KiB time=00:00:00.88 bitrate=   0.4kbits/s speed=0.0086x elapsed=0:01:42.76    \nframe=   56 fps=0.5 q=45.5 size=       0KiB time=00:00:00.90 bitrate=   0.4kbits/s speed=0.00871x elapsed=0:01:43.28    \nframe=   56 fps=0.5 q=45.5 size=       0KiB time=00:00:00.90 bitrate=   0.4kbits/s speed=0.00867x elapsed=0:01:43.80    \nframe=   57 fps=0.5 q=41.1 size=       0KiB time=00:00:00.91 bitrate=   0.4kbits/s speed=0.00879x elapsed=0:01:44.32    \nframe=   57 fps=0.5 q=41.1 size=       0KiB time=00:00:00.91 bitrate=   0.4kbits/s speed=0.00874x elapsed=0:01:44.88    \nframe=   57 fps=0.5 q=41.1 size=       0KiB time=00:00:00.91 bitrate=   0.4kbits/s speed=0.0087x elapsed=0:01:45.40    \nframe=   57 fps=0.5 q=41.1 size=       0KiB time=00:00:00.91 bitrate=   0.4kbits/s speed=0.00865x elapsed=0:01:45.96    \nframe=   58 fps=0.5 q=43.9 size=       0KiB time=00:00:00.93 bitrate=   0.4kbits/s speed=0.00876x elapsed=0:01:46.48    \nframe=   58 fps=0.5 q=43.9 size=       0KiB time=00:00:00.93 bitrate=   0.4kbits/s speed=0.00872x elapsed=0:01:47.02    \nframe=   58 fps=0.5 q=43.9 size=       0KiB time=00:00:00.93 bitrate=   0.4kbits/s speed=0.00868x elapsed=0:01:47.58    \nframe=   58 fps=0.5 q=43.9 size=       0KiB time=00:00:00.93 bitrate=   0.4kbits/s speed=0.00863x elapsed=0:01:48.10    \nframe=   58 fps=0.5 q=43.9 size=       0KiB time=00:00:00.93 bitrate=   0.4kbits/s speed=0.00859x elapsed=0:01:48.67    \nframe=   58 fps=0.5 q=43.9 size=       0KiB time=00:00:00.93 bitrate=   0.4kbits/s speed=0.00855x elapsed=0:01:49.19    \nframe=   58 fps=0.5 q=43.9 size=       0KiB time=00:00:00.93 bitrate=   0.4kbits/s speed=0.00851x elapsed=0:01:49.72    \nframe=   58 fps=0.5 q=43.9 size=       0KiB time=00:00:00.93 bitrate=   0.4kbits/s speed=0.00847x elapsed=0:01:50.25    \nframe=   58 fps=0.5 q=43.9 size=       0KiB time=00:00:00.93 bitrate=   0.4kbits/s speed=0.00842x elapsed=0:01:50.78    \nframe=   58 fps=0.5 q=43.9 size=       0KiB time=00:00:00.93 bitrate=   0.4kbits/s speed=0.00839x elapsed=0:01:51.30    \nframe=   58 fps=0.5 q=43.9 size=       0KiB time=00:00:00.93 bitrate=   0.4kbits/s speed=0.00834x elapsed=0:01:51.84    \nframe=   58 fps=0.5 q=43.9 size=       0KiB time=00:00:00.93 bitrate=   0.4kbits/s speed=0.0083x elapsed=0:01:52.41    \nframe=   58 fps=0.5 q=43.9 size=       0KiB time=00:00:00.93 bitrate=   0.4kbits/s speed=0.00826x elapsed=0:01:52.93    \nframe=   58 fps=0.5 q=43.9 size=       0KiB time=00:00:00.93 bitrate=   0.4kbits/s speed=0.00822x elapsed=0:01:53.47    \nframe=   58 fps=0.5 q=43.9 size=       0KiB time=00:00:00.93 bitrate=   0.4kbits/s speed=0.00819x elapsed=0:01:54.01    \nframe=   58 fps=0.5 q=43.9 size=       0KiB time=00:00:00.93 bitrate=   0.4kbits/s speed=0.00815x elapsed=0:01:54.53    \nframe=   59 fps=0.5 q=45.5 size=       0KiB time=00:00:00.95 bitrate=   0.4kbits/s speed=0.00826x elapsed=0:01:55.04    \nframe=   60 fps=0.5 q=41.0 size=       0KiB time=00:00:00.96 bitrate=   0.4kbits/s speed=0.00836x elapsed=0:01:55.59    \nframe=   60 fps=0.5 q=41.0 size=       0KiB time=00:00:00.96 bitrate=   0.4kbits/s speed=0.00832x elapsed=0:01:56.12    \nframe=   60 fps=0.5 q=41.0 size=       0KiB time=00:00:00.96 bitrate=   0.4kbits/s speed=0.00828x elapsed=0:01:56.67    \nframe=   60 fps=0.5 q=41.0 size=       0KiB time=00:00:00.96 bitrate=   0.4kbits/s speed=0.00825x elapsed=0:01:57.19    \nframe=   61 fps=0.5 q=43.9 size=       0KiB time=00:00:00.98 bitrate=   0.4kbits/s speed=0.00835x elapsed=0:01:57.71    \nframe=   62 fps=0.5 q=45.6 size=       0KiB time=00:00:01.00 bitrate=   0.4kbits/s speed=0.00846x elapsed=0:01:58.22    \nframe=   62 fps=0.5 q=45.6 size=       0KiB time=00:00:01.00 bitrate=   0.4kbits/s speed=0.00842x elapsed=0:01:58.73    \nframe=   63 fps=0.5 q=45.5 size=       0KiB time=00:00:01.01 bitrate=   0.3kbits/s speed=0.00852x elapsed=0:01:59.26    \nframe=   63 fps=0.5 q=45.5 size=       0KiB time=00:00:01.01 bitrate=   0.3kbits/s speed=0.00849x elapsed=0:01:59.77    \nframe=   63 fps=0.5 q=45.5 size=       0KiB time=00:00:01.01 bitrate=   0.3kbits/s speed=0.00845x elapsed=0:02:00.32    \nframe=   63 fps=0.5 q=45.5 size=       0KiB time=00:00:01.01 bitrate=   0.3kbits/s speed=0.00841x elapsed=0:02:00.85    \nframe=   63 fps=0.5 q=45.5 size=       0KiB time=00:00:01.01 bitrate=   0.3kbits/s speed=0.00838x elapsed=0:02:01.37    \nframe=   64 fps=0.5 q=45.4 size=       0KiB time=00:00:01.03 bitrate=   0.3kbits/s speed=0.00848x elapsed=0:02:01.89    \nframe=   65 fps=0.5 q=41.3 size=       0KiB time=00:00:01.05 bitrate=   0.3kbits/s speed=0.00858x elapsed=0:02:02.42    \nframe=   65 fps=0.5 q=41.3 size=       0KiB time=00:00:01.05 bitrate=   0.3kbits/s speed=0.00854x elapsed=0:02:02.98    \nframe=   65 fps=0.5 q=41.3 size=       0KiB time=00:00:01.05 bitrate=   0.3kbits/s speed=0.0085x elapsed=0:02:03.51    \nframe=   66 fps=0.5 q=44.1 size=       0KiB time=00:00:01.06 bitrate=   0.3kbits/s speed=0.0086x elapsed=0:02:04.03    \nframe=   67 fps=0.5 q=45.4 size=       0KiB time=00:00:01.08 bitrate=   0.3kbits/s speed=0.0087x elapsed=0:02:04.55    \nframe=   67 fps=0.5 q=45.4 size=       0KiB time=00:00:01.08 bitrate=   0.3kbits/s speed=0.00866x elapsed=0:02:05.06    \nframe=   67 fps=0.5 q=45.4 size=       0KiB time=00:00:01.08 bitrate=   0.3kbits/s speed=0.00863x elapsed=0:02:05.58    \nframe=   69 fps=0.5 q=45.6 size=       0KiB time=00:00:01.11 bitrate=   0.3kbits/s speed=0.00886x elapsed=0:02:06.09    \nframe=   69 fps=0.5 q=45.6 size=       0KiB time=00:00:01.11 bitrate=   0.3kbits/s speed=0.00882x elapsed=0:02:06.60    \nframe=   70 fps=0.6 q=41.4 size=       0KiB time=00:00:01.13 bitrate=   0.3kbits/s speed=0.00891x elapsed=0:02:07.13    \nframe=   70 fps=0.5 q=41.4 size=       0KiB time=00:00:01.13 bitrate=   0.3kbits/s speed=0.00888x elapsed=0:02:07.65    \nframe=   70 fps=0.5 q=41.4 size=       0KiB time=00:00:01.13 bitrate=   0.3kbits/s speed=0.00884x elapsed=0:02:08.17    \nframe=   70 fps=0.5 q=41.4 size=       0KiB time=00:00:01.13 bitrate=   0.3kbits/s speed=0.00881x elapsed=0:02:08.69    \nframe=   70 fps=0.5 q=41.4 size=       0KiB time=00:00:01.13 bitrate=   0.3kbits/s speed=0.00877x elapsed=0:02:09.21    \nframe=   70 fps=0.5 q=41.4 size=       0KiB time=00:00:01.13 bitrate=   0.3kbits/s speed=0.00873x elapsed=0:02:09.75    \nframe=   71 fps=0.5 q=45.5 size=       0KiB time=00:00:01.15 bitrate=   0.3kbits/s speed=0.00882x elapsed=0:02:10.31    \nframe=   71 fps=0.5 q=45.5 size=       0KiB time=00:00:01.15 bitrate=   0.3kbits/s speed=0.00879x elapsed=0:02:10.83    \nframe=   71 fps=0.5 q=45.5 size=       0KiB time=00:00:01.15 bitrate=   0.3kbits/s speed=0.00875x elapsed=0:02:11.35    \nframe=   72 fps=0.5 q=41.4 size=       0KiB time=00:00:01.16 bitrate=   0.3kbits/s speed=0.00885x elapsed=0:02:11.88    \nframe=   72 fps=0.5 q=41.4 size=       0KiB time=00:00:01.16 bitrate=   0.3kbits/s speed=0.00881x elapsed=0:02:12.40    \nframe=   72 fps=0.5 q=41.4 size=       0KiB time=00:00:01.16 bitrate=   0.3kbits/s speed=0.00878x elapsed=0:02:12.93    \nframe=   72 fps=0.5 q=41.4 size=       0KiB time=00:00:01.16 bitrate=   0.3kbits/s speed=0.00874x elapsed=0:02:13.45    \nframe=   72 fps=0.5 q=41.4 size=       0KiB time=00:00:01.16 bitrate=   0.3kbits/s speed=0.00871x elapsed=0:02:14.00    \nframe=   73 fps=0.5 q=43.9 size=       0KiB time=00:00:01.18 bitrate=   0.3kbits/s speed=0.0088x elapsed=0:02:14.54    \nframe=   73 fps=0.5 q=43.9 size=       0KiB time=00:00:01.18 bitrate=   0.3kbits/s speed=0.00876x elapsed=0:02:15.08    \nframe=   73 fps=0.5 q=43.9 size=       0KiB time=00:00:01.18 bitrate=   0.3kbits/s speed=0.00873x elapsed=0:02:15.60    \nframe=   74 fps=0.5 q=45.6 size=       0KiB time=00:00:01.20 bitrate=   0.3kbits/s speed=0.00882x elapsed=0:02:16.12    \nframe=   74 fps=0.5 q=45.6 size=       0KiB time=00:00:01.20 bitrate=   0.3kbits/s speed=0.00878x elapsed=0:02:16.66    \nframe=   74 fps=0.5 q=45.6 size=       0KiB time=00:00:01.20 bitrate=   0.3kbits/s speed=0.00875x elapsed=0:02:17.19    \nframe=   74 fps=0.5 q=45.6 size=       0KiB time=00:00:01.20 bitrate=   0.3kbits/s speed=0.00871x elapsed=0:02:17.72    \nframe=   74 fps=0.5 q=45.6 size=       0KiB time=00:00:01.20 bitrate=   0.3kbits/s speed=0.00868x elapsed=0:02:18.24    \nframe=   74 fps=0.5 q=45.6 size=       0KiB time=00:00:01.20 bitrate=   0.3kbits/s speed=0.00865x elapsed=0:02:18.78    \nframe=   75 fps=0.5 q=45.7 size=       0KiB time=00:00:01.21 bitrate=   0.3kbits/s speed=0.00873x elapsed=0:02:19.30    \nframe=   75 fps=0.5 q=45.7 size=       0KiB time=00:00:01.21 bitrate=   0.3kbits/s speed=0.0087x elapsed=0:02:19.81    \nframe=   76 fps=0.5 q=41.3 size=       0KiB time=00:00:01.23 bitrate=   0.3kbits/s speed=0.00879x elapsed=0:02:20.34    \nframe=   77 fps=0.5 q=44.0 size=       0KiB time=00:00:01.25 bitrate=   0.3kbits/s speed=0.00887x elapsed=0:02:20.86    \nframe=   77 fps=0.5 q=44.0 size=       0KiB time=00:00:01.25 bitrate=   0.3kbits/s speed=0.00884x elapsed=0:02:21.41    \nframe=   77 fps=0.5 q=44.0 size=       0KiB time=00:00:01.25 bitrate=   0.3kbits/s speed=0.00881x elapsed=0:02:21.95    \nframe=   78 fps=0.5 q=45.4 size=       0KiB time=00:00:01.26 bitrate=   0.3kbits/s speed=0.00889x elapsed=0:02:22.46    \nframe=   79 fps=0.6 q=46.3 size=       0KiB time=00:00:01.28 bitrate=   0.3kbits/s speed=0.00897x elapsed=0:02:23.01    \nframe=   79 fps=0.6 q=46.3 size=       0KiB time=00:00:01.28 bitrate=   0.3kbits/s speed=0.00894x elapsed=0:02:23.53    \nframe=   80 fps=0.6 q=41.8 size=       0KiB time=00:00:01.30 bitrate=   0.3kbits/s speed=0.00902x elapsed=0:02:24.05    \nframe=   80 fps=0.6 q=41.8 size=       0KiB time=00:00:01.30 bitrate=   0.3kbits/s speed=0.00899x elapsed=0:02:24.57    \nframe=   80 fps=0.6 q=41.8 size=       0KiB time=00:00:01.30 bitrate=   0.3kbits/s speed=0.00896x elapsed=0:02:25.11    \nframe=   80 fps=0.5 q=41.8 size=       0KiB time=00:00:01.30 bitrate=   0.3kbits/s speed=0.00893x elapsed=0:02:25.63    \nframe=   80 fps=0.5 q=41.8 size=       0KiB time=00:00:01.30 bitrate=   0.3kbits/s speed=0.0089x elapsed=0:02:26.14    \nframe=   80 fps=0.5 q=41.8 size=       0KiB time=00:00:01.30 bitrate=   0.3kbits/s speed=0.00886x elapsed=0:02:26.66    \nframe=   80 fps=0.5 q=41.8 size=       0KiB time=00:00:01.30 bitrate=   0.3kbits/s speed=0.00883x elapsed=0:02:27.18    \nframe=   80 fps=0.5 q=41.8 size=       0KiB time=00:00:01.30 bitrate=   0.3kbits/s speed=0.0088x elapsed=0:02:27.71    \nframe=   80 fps=0.5 q=41.8 size=       0KiB time=00:00:01.30 bitrate=   0.3kbits/s speed=0.00877x elapsed=0:02:28.23    \nframe=   80 fps=0.5 q=41.8 size=       0KiB time=00:00:01.30 bitrate=   0.3kbits/s speed=0.00874x elapsed=0:02:28.74    \nframe=   80 fps=0.5 q=41.8 size=       0KiB time=00:00:01.30 bitrate=   0.3kbits/s speed=0.00871x elapsed=0:02:29.27    \nframe=   80 fps=0.5 q=41.8 size=       0KiB time=00:00:01.30 bitrate=   0.3kbits/s speed=0.00868x elapsed=0:02:29.79    \nframe=   81 fps=0.5 q=45.1 size=       0KiB time=00:00:01.31 bitrate=   0.3kbits/s speed=0.00876x elapsed=0:02:30.31    \nframe=   82 fps=0.5 q=46.3 size=       0KiB time=00:00:01.33 bitrate=   0.3kbits/s speed=0.00884x elapsed=0:02:30.82    \nframe=   82 fps=0.5 q=46.3 size=       0KiB time=00:00:01.33 bitrate=   0.3kbits/s speed=0.00881x elapsed=0:02:31.34    \nframe=   82 fps=0.5 q=46.3 size=       0KiB time=00:00:01.33 bitrate=   0.3kbits/s speed=0.00878x elapsed=0:02:31.87    \nframe=   83 fps=0.5 q=46.4 size=       0KiB time=00:00:01.35 bitrate=   0.3kbits/s speed=0.00886x elapsed=0:02:32.38    \nframe=   83 fps=0.5 q=46.4 size=       0KiB time=00:00:01.35 bitrate=   0.3kbits/s speed=0.00883x elapsed=0:02:32.89    \nframe=   83 fps=0.5 q=46.4 size=       0KiB time=00:00:01.35 bitrate=   0.3kbits/s speed=0.0088x elapsed=0:02:33.41    \nframe=   83 fps=0.5 q=46.4 size=       0KiB time=00:00:01.35 bitrate=   0.3kbits/s speed=0.00877x elapsed=0:02:33.92    \nframe=   84 fps=0.5 q=46.6 size=       0KiB time=00:00:01.36 bitrate=   0.3kbits/s speed=0.00885x elapsed=0:02:34.44    \nframe=   84 fps=0.5 q=46.6 size=       0KiB time=00:00:01.36 bitrate=   0.3kbits/s speed=0.00882x elapsed=0:02:34.95    \nframe=   84 fps=0.5 q=46.6 size=       0KiB time=00:00:01.36 bitrate=   0.3kbits/s speed=0.00879x elapsed=0:02:35.50    \nframe=   85 fps=0.5 q=41.8 size=       0KiB time=00:00:01.38 bitrate=   0.3kbits/s speed=0.00887x elapsed=0:02:36.01    \nframe=   85 fps=0.5 q=41.8 size=       0KiB time=00:00:01.38 bitrate=   0.3kbits/s speed=0.00884x elapsed=0:02:36.54    \nframe=   85 fps=0.5 q=41.8 size=       0KiB time=00:00:01.38 bitrate=   0.3kbits/s speed=0.00881x elapsed=0:02:37.06    \nframe=   85 fps=0.5 q=41.8 size=       0KiB time=00:00:01.38 bitrate=   0.3kbits/s speed=0.00878x elapsed=0:02:37.58    \nframe=   85 fps=0.5 q=41.8 size=       0KiB time=00:00:01.38 bitrate=   0.3kbits/s speed=0.00875x elapsed=0:02:38.13    \nframe=   85 fps=0.5 q=41.8 size=       0KiB time=00:00:01.38 bitrate=   0.3kbits/s speed=0.00872x elapsed=0:02:38.66    \nframe=   86 fps=0.5 q=44.4 size=       0KiB time=00:00:01.40 bitrate=   0.3kbits/s speed=0.00879x elapsed=0:02:39.18    \nframe=   87 fps=0.5 q=46.6 size=       0KiB time=00:00:01.41 bitrate=   0.2kbits/s speed=0.00887x elapsed=0:02:39.73    \nframe=   88 fps=0.5 q=46.7 size=       0KiB time=00:00:01.43 bitrate=   0.2kbits/s speed=0.00894x elapsed=0:02:40.24    \nframe=   89 fps=0.6 q=42.2 size=       0KiB time=00:00:01.45 bitrate=   0.2kbits/s speed=0.00902x elapsed=0:02:40.77    \nframe=   90 fps=0.6 q=45.0 size=       0KiB time=00:00:01.46 bitrate=   0.2kbits/s speed=0.00909x elapsed=0:02:41.33    \nframe=   91 fps=0.6 q=46.5 size=       0KiB time=00:00:01.48 bitrate=   0.2kbits/s speed=0.00916x elapsed=0:02:41.85    \nframe=   93 fps=0.6 q=42.1 size=       0KiB time=00:00:01.51 bitrate=   0.2kbits/s speed=0.00934x elapsed=0:02:42.38    \nframe=   94 fps=0.6 q=45.1 size=       0KiB time=00:00:01.53 bitrate=   0.2kbits/s speed=0.00941x elapsed=0:02:42.92    \nframe=   94 fps=0.6 q=45.1 size=       0KiB time=00:00:01.53 bitrate=   0.2kbits/s speed=0.00938x elapsed=0:02:43.44    \nframe=   94 fps=0.6 q=45.1 size=       0KiB time=00:00:01.53 bitrate=   0.2kbits/s speed=0.00935x elapsed=0:02:43.95    \nframe=   94 fps=0.6 q=45.1 size=       0KiB time=00:00:01.53 bitrate=   0.2kbits/s speed=0.00932x elapsed=0:02:44.47    \nframe=   94 fps=0.6 q=45.1 size=       0KiB time=00:00:01.53 bitrate=   0.2kbits/s speed=0.00929x elapsed=0:02:45.00    \nframe=   94 fps=0.6 q=45.1 size=       0KiB time=00:00:01.53 bitrate=   0.2kbits/s speed=0.00926x elapsed=0:02:45.53    \nframe=   95 fps=0.6 q=47.3 size=       0KiB time=00:00:01.55 bitrate=   0.2kbits/s speed=0.00933x elapsed=0:02:46.04    \nframe=   96 fps=0.6 q=42.3 size=       0KiB time=00:00:01.56 bitrate=   0.2kbits/s speed=0.00941x elapsed=0:02:46.57    \nframe=   96 fps=0.6 q=42.3 size=       0KiB time=00:00:01.56 bitrate=   0.2kbits/s speed=0.00937x elapsed=0:02:47.12    \nframe=   96 fps=0.6 q=42.3 size=       0KiB time=00:00:01.56 bitrate=   0.2kbits/s speed=0.00935x elapsed=0:02:47.64    \nframe=   96 fps=0.6 q=42.3 size=       0KiB time=00:00:01.56 bitrate=   0.2kbits/s speed=0.00932x elapsed=0:02:48.16    \nframe=   96 fps=0.6 q=42.3 size=       0KiB time=00:00:01.56 bitrate=   0.2kbits/s speed=0.00929x elapsed=0:02:48.68    \nframe=   98 fps=0.6 q=47.5 size=       0KiB time=00:00:01.60 bitrate=   0.2kbits/s speed=0.00946x elapsed=0:02:49.19    \nframe=   98 fps=0.6 q=47.5 size=       0KiB time=00:00:01.60 bitrate=   0.2kbits/s speed=0.00943x elapsed=0:02:49.74    \nframe=   98 fps=0.6 q=47.5 size=       0KiB time=00:00:01.60 bitrate=   0.2kbits/s speed=0.0094x elapsed=0:02:50.25    \nframe=   98 fps=0.6 q=47.5 size=       0KiB time=00:00:01.60 bitrate=   0.2kbits/s speed=0.00937x elapsed=0:02:50.81    \nframe=   98 fps=0.6 q=47.5 size=       0KiB time=00:00:01.60 bitrate=   0.2kbits/s speed=0.00934x elapsed=0:02:51.35    \nframe=   98 fps=0.6 q=47.5 size=       0KiB time=00:00:01.60 bitrate=   0.2kbits/s speed=0.0093x elapsed=0:02:51.95    \nframe=   99 fps=0.6 q=47.4 size=       0KiB time=00:00:01.61 bitrate=   0.2kbits/s speed=0.00937x elapsed=0:02:52.54    \nframe=   99 fps=0.6 q=47.4 size=       0KiB time=00:00:01.61 bitrate=   0.2kbits/s speed=0.00934x elapsed=0:02:53.14    \nframe=   99 fps=0.6 q=47.4 size=       0KiB time=00:00:01.61 bitrate=   0.2kbits/s speed=0.00931x elapsed=0:02:53.72    \nframe=  100 fps=0.6 q=47.7 size=       0KiB time=00:00:01.63 bitrate=   0.2kbits/s speed=0.00937x elapsed=0:02:54.29    \nframe=  101 fps=0.6 q=42.4 size=       0KiB time=00:00:01.65 bitrate=   0.2kbits/s speed=0.00944x elapsed=0:02:54.86    \nframe=  101 fps=0.6 q=42.4 size=       0KiB time=00:00:01.65 bitrate=   0.2kbits/s speed=0.00941x elapsed=0:02:55.43    \nframe=  101 fps=0.6 q=42.4 size=       0KiB time=00:00:01.65 bitrate=   0.2kbits/s speed=0.00937x elapsed=0:02:56.09    \nframe=  101 fps=0.6 q=42.4 size=       0KiB time=00:00:01.65 bitrate=   0.2kbits/s speed=0.00934x elapsed=0:02:56.69    \nframe=  101 fps=0.6 q=42.4 size=       0KiB time=00:00:01.65 bitrate=   0.2kbits/s speed=0.00931x elapsed=0:02:57.32    \nframe=  101 fps=0.6 q=42.4 size=       0KiB time=00:00:01.65 bitrate=   0.2kbits/s speed=0.00927x elapsed=0:02:57.90    \nframe=  102 fps=0.6 q=45.8 size=       0KiB time=00:00:01.66 bitrate=   0.2kbits/s speed=0.00933x elapsed=0:02:58.54    \nframe=  102 fps=0.6 q=45.8 size=       0KiB time=00:00:01.66 bitrate=   0.2kbits/s speed=0.0093x elapsed=0:02:59.13    \nframe=  102 fps=0.6 q=45.8 size=       0KiB time=00:00:01.66 bitrate=   0.2kbits/s speed=0.00927x elapsed=0:02:59.74    \nframe=  102 fps=0.6 q=45.8 size=       0KiB time=00:00:01.66 bitrate=   0.2kbits/s speed=0.00925x elapsed=0:03:00.27    \nframe=  102 fps=0.6 q=45.8 size=       0KiB time=00:00:01.66 bitrate=   0.2kbits/s speed=0.00922x elapsed=0:03:00.80    \nframe=  102 fps=0.6 q=45.8 size=       0KiB time=00:00:01.66 bitrate=   0.2kbits/s speed=0.00919x elapsed=0:03:01.39    \nframe=  103 fps=0.6 q=47.7 size=       0KiB time=00:00:01.68 bitrate=   0.2kbits/s speed=0.00925x elapsed=0:03:02.02    \nframe=  103 fps=0.6 q=47.7 size=       0KiB time=00:00:01.68 bitrate=   0.2kbits/s speed=0.00922x elapsed=0:03:02.66    \nframe=  104 fps=0.6 q=43.1 size=       0KiB time=00:00:01.68 bitrate=   0.2kbits/s speed=0.00918x elapsed=0:03:03.27    \nframe=  104 fps=0.6 q=43.1 size=       0KiB time=00:00:01.70 bitrate=   0.2kbits/s speed=0.00925x elapsed=0:03:03.86    \nframe=  104 fps=0.6 q=43.1 size=       0KiB time=00:00:01.70 bitrate=   0.2kbits/s speed=0.00922x elapsed=0:03:04.46    \nframe=  104 fps=0.6 q=43.1 size=       0KiB time=00:00:01.70 bitrate=   0.2kbits/s speed=0.00918x elapsed=0:03:05.12    \nframe=  104 fps=0.6 q=43.1 size=       0KiB time=00:00:01.70 bitrate=   0.2kbits/s speed=0.00915x elapsed=0:03:05.69    \nframe=  104 fps=0.6 q=43.1 size=       0KiB time=00:00:01.70 bitrate=   0.2kbits/s speed=0.00912x elapsed=0:03:06.33    \nframe=  104 fps=0.6 q=43.1 size=       0KiB time=00:00:01.70 bitrate=   0.2kbits/s speed=0.00909x elapsed=0:03:06.96    \nframe=  105 fps=0.6 q=44.9 size=       0KiB time=00:00:01.71 bitrate=   0.2kbits/s speed=0.00915x elapsed=0:03:07.57    \nframe=  105 fps=0.6 q=44.9 size=       0KiB time=00:00:01.71 bitrate=   0.2kbits/s speed=0.00912x elapsed=0:03:08.26    \nframe=  105 fps=0.6 q=44.9 size=       0KiB time=00:00:01.71 bitrate=   0.2kbits/s speed=0.00909x elapsed=0:03:08.89    \nframe=  106 fps=0.6 q=47.8 size=       0KiB time=00:00:01.73 bitrate=   0.2kbits/s speed=0.00915x elapsed=0:03:09.51    \nframe=  106 fps=0.6 q=47.8 size=       0KiB time=00:00:01.73 bitrate=   0.2kbits/s speed=0.00912x elapsed=0:03:10.03    \nframe=  106 fps=0.6 q=47.8 size=       0KiB time=00:00:01.73 bitrate=   0.2kbits/s speed=0.0091x elapsed=0:03:10.57    \nframe=  107 fps=0.6 q=43.0 size=       0KiB time=00:00:01.75 bitrate=   0.2kbits/s speed=0.00916x elapsed=0:03:11.12    \nframe=  107 fps=0.6 q=43.0 size=       0KiB time=00:00:01.75 bitrate=   0.2kbits/s speed=0.00913x elapsed=0:03:11.72    \nframe=  108 fps=0.6 q=45.7 size=       0KiB time=00:00:01.76 bitrate=   0.2kbits/s speed=0.00919x elapsed=0:03:12.26    \nframe=  108 fps=0.6 q=45.7 size=       0KiB time=00:00:01.76 bitrate=   0.2kbits/s speed=0.00916x elapsed=0:03:12.83    \nframe=  108 fps=0.6 q=45.7 size=       0KiB time=00:00:01.76 bitrate=   0.2kbits/s speed=0.00913x elapsed=0:03:13.41    \nframe=  109 fps=0.6 q=47.8 size=       0KiB time=00:00:01.78 bitrate=   0.2kbits/s speed=0.0092x elapsed=0:03:13.94    \nframe=  109 fps=0.6 q=47.8 size=       0KiB time=00:00:01.78 bitrate=   0.2kbits/s speed=0.00917x elapsed=0:03:14.47    \nframe=  110 fps=0.6 q=48.5 size=       0KiB time=00:00:01.80 bitrate=   0.2kbits/s speed=0.00923x elapsed=0:03:14.99    \nframe=  110 fps=0.6 q=48.5 size=       0KiB time=00:00:01.80 bitrate=   0.2kbits/s speed=0.0092x elapsed=0:03:15.56    \nframe=  112 fps=0.6 q=42.8 size=       0KiB time=00:00:01.83 bitrate=   0.2kbits/s speed=0.00935x elapsed=0:03:16.10    \nframe=  113 fps=0.6 q=45.8 size=       0KiB time=00:00:01.85 bitrate=   0.2kbits/s speed=0.00941x elapsed=0:03:16.68    \nframe=  113 fps=0.6 q=45.8 size=       0KiB time=00:00:01.85 bitrate=   0.2kbits/s speed=0.00937x elapsed=0:03:17.33    \nframe=  113 fps=0.6 q=45.8 size=       0KiB time=00:00:01.85 bitrate=   0.2kbits/s speed=0.00935x elapsed=0:03:17.96    \nframe=  113 fps=0.6 q=45.8 size=       0KiB time=00:00:01.85 bitrate=   0.2kbits/s speed=0.00932x elapsed=0:03:18.47    \nframe=  114 fps=0.6 q=48.3 size=       0KiB time=00:00:01.86 bitrate=   0.2kbits/s speed=0.00938x elapsed=0:03:19.09    \nframe=  114 fps=0.6 q=48.3 size=       0KiB time=00:00:01.86 bitrate=   0.2kbits/s speed=0.00935x elapsed=0:03:19.67    \nframe=  114 fps=0.6 q=48.3 size=       0KiB time=00:00:01.86 bitrate=   0.2kbits/s speed=0.00932x elapsed=0:03:20.25    \nframe=  114 fps=0.6 q=48.3 size=       0KiB time=00:00:01.86 bitrate=   0.2kbits/s speed=0.00929x elapsed=0:03:20.88    \nframe=  115 fps=0.6 q=48.7 size=       0KiB time=00:00:01.88 bitrate=   0.2kbits/s speed=0.00935x elapsed=0:03:21.42    \nframe=  115 fps=0.6 q=48.7 size=       0KiB time=00:00:01.88 bitrate=   0.2kbits/s speed=0.00932x elapsed=0:03:21.96    \nframe=  116 fps=0.6 q=42.7 size=       0KiB time=00:00:01.90 bitrate=   0.2kbits/s speed=0.00938x elapsed=0:03:22.52    \nframe=  116 fps=0.6 q=42.7 size=       0KiB time=00:00:01.90 bitrate=   0.2kbits/s speed=0.00936x elapsed=0:03:23.08    \nframe=  116 fps=0.6 q=42.7 size=       0KiB time=00:00:01.90 bitrate=   0.2kbits/s speed=0.00933x elapsed=0:03:23.70    \nframe=  116 fps=0.6 q=42.7 size=       0KiB time=00:00:01.90 bitrate=   0.2kbits/s speed=0.0093x elapsed=0:03:24.29    \nframe=  117 fps=0.6 q=46.2 size=       0KiB time=00:00:01.91 bitrate=   0.2kbits/s speed=0.00936x elapsed=0:03:24.85    \nframe=  117 fps=0.6 q=46.2 size=       0KiB time=00:00:01.91 bitrate=   0.2kbits/s speed=0.00933x elapsed=0:03:25.43    \nframe=  118 fps=0.6 q=48.3 size=       0KiB time=00:00:01.93 bitrate=   0.2kbits/s speed=0.00939x elapsed=0:03:25.97    \nframe=  120 fps=0.6 q=48.8 size=       0KiB time=00:00:01.96 bitrate=   0.2kbits/s speed=0.00952x elapsed=0:03:26.53    \nframe=  120 fps=0.6 q=48.8 size=       0KiB time=00:00:01.96 bitrate=   0.2kbits/s speed=0.0095x elapsed=0:03:27.10    \nframe=  122 fps=0.6 q=45.7 size=     256KiB time=00:00:02.00 bitrate=1048.8kbits/s speed=0.00963x elapsed=0:03:27.63    \nframe=  122 fps=0.6 q=45.7 size=     256KiB time=00:00:02.00 bitrate=1048.8kbits/s speed=0.00961x elapsed=0:03:28.18    \nframe=  122 fps=0.6 q=45.7 size=     256KiB time=00:00:02.00 bitrate=1048.8kbits/s speed=0.00958x elapsed=0:03:28.78    \nframe=  123 fps=0.6 q=48.6 size=     256KiB time=00:00:02.01 bitrate=1040.1kbits/s speed=0.00963x elapsed=0:03:29.31    \nframe=  124 fps=0.6 q=48.4 size=     256KiB time=00:00:02.03 bitrate=1031.6kbits/s speed=0.00969x elapsed=0:03:29.84    \nframe=  124 fps=0.6 q=48.4 size=     256KiB time=00:00:02.03 bitrate=1031.6kbits/s speed=0.00966x elapsed=0:03:30.39    \nframe=  124 fps=0.6 q=48.4 size=     256KiB time=00:00:02.03 bitrate=1031.6kbits/s speed=0.00964x elapsed=0:03:30.96    \nframe=  124 fps=0.6 q=48.4 size=     256KiB time=00:00:02.03 bitrate=1031.6kbits/s speed=0.00961x elapsed=0:03:31.54    \nframe=  124 fps=0.6 q=48.4 size=     256KiB time=00:00:02.03 bitrate=1031.6kbits/s speed=0.00959x elapsed=0:03:32.07    \nframe=  124 fps=0.6 q=48.4 size=     256KiB time=00:00:02.03 bitrate=1031.6kbits/s speed=0.00956x elapsed=0:03:32.60    \nframe=  126 fps=0.6 q=45.8 size=     256KiB time=00:00:02.06 bitrate=1014.9kbits/s speed=0.0097x elapsed=0:03:33.12    \nframe=  126 fps=0.6 q=45.8 size=     256KiB time=00:00:02.06 bitrate=1014.9kbits/s speed=0.00967x elapsed=0:03:33.64    \nframe=  126 fps=0.6 q=45.8 size=     256KiB time=00:00:02.06 bitrate=1014.9kbits/s speed=0.00965x elapsed=0:03:34.21    \nframe=  126 fps=0.6 q=45.8 size=     256KiB time=00:00:02.06 bitrate=1014.9kbits/s speed=0.00962x elapsed=0:03:34.82    \nframe=  127 fps=0.6 q=48.6 size=     256KiB time=00:00:02.08 bitrate=1006.8kbits/s speed=0.00967x elapsed=0:03:35.36    \nframe=  128 fps=0.6 q=48.6 size=     256KiB time=00:00:02.10 bitrate= 998.8kbits/s speed=0.00973x elapsed=0:03:35.93    \nframe=  130 fps=0.6 q=46.5 size=     256KiB time=00:00:02.13 bitrate= 983.2kbits/s speed=0.00985x elapsed=0:03:36.49    \nframe=  130 fps=0.6 q=46.5 size=     256KiB time=00:00:02.13 bitrate= 983.2kbits/s speed=0.00983x elapsed=0:03:37.07    \nframe=  130 fps=0.6 q=46.5 size=     256KiB time=00:00:02.13 bitrate= 983.2kbits/s speed=0.0098x elapsed=0:03:37.60    \nframe=  130 fps=0.6 q=46.5 size=     256KiB time=00:00:02.13 bitrate= 983.2kbits/s speed=0.00978x elapsed=0:03:38.17    \nframe=  131 fps=0.6 q=48.6 size=     256KiB time=00:00:02.15 bitrate= 975.6kbits/s speed=0.00983x elapsed=0:03:38.71    \nframe=  132 fps=0.6 q=42.4 size=     256KiB time=00:00:02.16 bitrate= 968.1kbits/s speed=0.00988x elapsed=0:03:39.26    \nframe=  132 fps=0.6 q=42.4 size=     256KiB time=00:00:02.16 bitrate= 968.1kbits/s speed=0.00986x elapsed=0:03:39.81    \nframe=  132 fps=0.6 q=42.4 size=     256KiB time=00:00:02.16 bitrate= 968.1kbits/s speed=0.00983x elapsed=0:03:40.34    \nframe=  133 fps=0.6 q=45.5 size=     256KiB time=00:00:02.18 bitrate= 960.7kbits/s speed=0.00988x elapsed=0:03:40.87    \nframe=  133 fps=0.6 q=45.5 size=     256KiB time=00:00:02.18 bitrate= 960.7kbits/s speed=0.00986x elapsed=0:03:41.44    \nframe=  134 fps=0.6 q=48.4 size=     256KiB time=00:00:02.20 bitrate= 953.4kbits/s speed=0.00991x elapsed=0:03:42.00    \nframe=  134 fps=0.6 q=48.4 size=     256KiB time=00:00:02.20 bitrate= 953.4kbits/s speed=0.00988x elapsed=0:03:42.58    \nframe=  135 fps=0.6 q=48.7 size=     256KiB time=00:00:02.21 bitrate= 946.2kbits/s speed=0.00994x elapsed=0:03:43.10    \nframe=  135 fps=0.6 q=48.7 size=     256KiB time=00:00:02.21 bitrate= 946.2kbits/s speed=0.00991x elapsed=0:03:43.63    \nframe=  136 fps=0.6 q=42.3 size=     256KiB time=00:00:02.23 bitrate= 939.2kbits/s speed=0.00996x elapsed=0:03:44.19    \nframe=  137 fps=0.6 q=46.3 size=     256KiB time=00:00:02.25 bitrate= 932.2kbits/s speed=0.01x elapsed=0:03:44.71    \nframe=  137 fps=0.6 q=46.3 size=     256KiB time=00:00:02.25 bitrate= 932.2kbits/s speed=0.00999x elapsed=0:03:45.23    \nframe=  138 fps=0.6 q=47.3 size=     256KiB time=00:00:02.26 bitrate= 925.4kbits/s speed=0.01x elapsed=0:03:45.77    \nframe=  138 fps=0.6 q=47.3 size=     256KiB time=00:00:02.26 bitrate= 925.4kbits/s speed=0.01x elapsed=0:03:46.30    \nframe=  139 fps=0.6 q=48.2 size=     256KiB time=00:00:02.28 bitrate= 918.6kbits/s speed=0.0101x elapsed=0:03:46.85    \nframe=  140 fps=0.6 q=48.4 size=     256KiB time=00:00:02.30 bitrate= 912.0kbits/s speed=0.0101x elapsed=0:03:47.37    \nframe=  141 fps=0.6 q=42.3 size=     256KiB time=00:00:02.31 bitrate= 905.4kbits/s speed=0.0102x elapsed=0:03:47.92    \nframe=  141 fps=0.6 q=42.3 size=     256KiB time=00:00:02.31 bitrate= 905.4kbits/s speed=0.0101x elapsed=0:03:48.46    \nframe=  141 fps=0.6 q=42.3 size=     256KiB time=00:00:02.31 bitrate= 905.4kbits/s speed=0.0101x elapsed=0:03:48.98    \nframe=  141 fps=0.6 q=42.3 size=     256KiB time=00:00:02.31 bitrate= 905.4kbits/s speed=0.0101x elapsed=0:03:49.52    \nframe=  141 fps=0.6 q=42.3 size=     256KiB time=00:00:02.31 bitrate= 905.4kbits/s speed=0.0101x elapsed=0:03:50.07    \nframe=  141 fps=0.6 q=42.3 size=     256KiB time=00:00:02.31 bitrate= 905.4kbits/s speed=0.01x elapsed=0:03:50.65    \nframe=  143 fps=0.6 q=47.6 size=     256KiB time=00:00:02.33 bitrate= 898.9kbits/s speed=0.0101x elapsed=0:03:51.20    \nframe=  144 fps=0.6 q=48.4 size=     256KiB time=00:00:02.36 bitrate= 886.3kbits/s speed=0.0102x elapsed=0:03:51.78    \nframe=  144 fps=0.6 q=48.4 size=     256KiB time=00:00:02.36 bitrate= 886.3kbits/s speed=0.0102x elapsed=0:03:52.30    \nframe=  145 fps=0.6 q=47.7 size=     256KiB time=00:00:02.38 bitrate= 880.1kbits/s speed=0.0102x elapsed=0:03:52.92    \nframe=  147 fps=0.6 q=45.4 size=     256KiB time=00:00:02.41 bitrate= 867.9kbits/s speed=0.0103x elapsed=0:03:53.63    \nframe=  148 fps=0.6 q=47.8 size=     256KiB time=00:00:02.43 bitrate= 862.0kbits/s speed=0.0104x elapsed=0:03:54.30    \nframe=  149 fps=0.6 q=42.1 size=     256KiB time=00:00:02.45 bitrate= 856.1kbits/s speed=0.0104x elapsed=0:03:54.86    \nframe=  151 fps=0.6 q=47.8 size=     256KiB time=00:00:02.48 bitrate= 844.6kbits/s speed=0.0105x elapsed=0:03:55.40    \nframe=  152 fps=0.6 q=47.7 size=     256KiB time=00:00:02.50 bitrate= 839.0kbits/s speed=0.0106x elapsed=0:03:56.02    \nframe=  153 fps=0.6 q=42.1 size=     256KiB time=00:00:02.51 bitrate= 833.4kbits/s speed=0.0106x elapsed=0:03:56.64    \nframe=  154 fps=0.6 q=45.0 size=     256KiB time=00:00:02.53 bitrate= 828.0kbits/s speed=0.0107x elapsed=0:03:57.19    \nframe=  156 fps=0.7 q=47.6 size=     256KiB time=00:00:02.56 bitrate= 817.2kbits/s speed=0.0108x elapsed=0:03:57.76    \nframe=  157 fps=0.7 q=42.2 size=     256KiB time=00:00:02.58 bitrate= 811.9kbits/s speed=0.0108x elapsed=0:03:58.30    \nframe=  157 fps=0.7 q=42.2 size=     256KiB time=00:00:02.58 bitrate= 811.9kbits/s speed=0.0108x elapsed=0:03:58.85    \nframe=  157 fps=0.7 q=42.2 size=     256KiB time=00:00:02.58 bitrate= 811.9kbits/s speed=0.0108x elapsed=0:03:59.40    \nframe=  157 fps=0.7 q=42.2 size=     256KiB time=00:00:02.58 bitrate= 811.9kbits/s speed=0.0108x elapsed=0:03:59.97    \nframe=  157 fps=0.7 q=42.2 size=     256KiB time=00:00:02.58 bitrate= 811.9kbits/s speed=0.0107x elapsed=0:04:00.54    \nframe=  157 fps=0.7 q=42.2 size=     256KiB time=00:00:02.58 bitrate= 811.9kbits/s speed=0.0107x elapsed=0:04:01.09    \nframe=  158 fps=0.7 q=45.1 size=     256KiB time=00:00:02.60 bitrate= 806.7kbits/s speed=0.0108x elapsed=0:04:01.68    \nframe=  158 fps=0.7 q=45.1 size=     256KiB time=00:00:02.60 bitrate= 806.7kbits/s speed=0.0107x elapsed=0:04:02.31    \nframe=  158 fps=0.7 q=45.1 size=     256KiB time=00:00:02.60 bitrate= 806.7kbits/s speed=0.0107x elapsed=0:04:02.90    \nframe=  158 fps=0.6 q=45.1 size=     256KiB time=00:00:02.60 bitrate= 806.7kbits/s speed=0.0107x elapsed=0:04:03.58    \nframe=  158 fps=0.6 q=45.1 size=     256KiB time=00:00:02.60 bitrate= 806.7kbits/s speed=0.0106x elapsed=0:04:04.32    \nframe=  158 fps=0.6 q=45.1 size=     256KiB time=00:00:02.60 bitrate= 806.7kbits/s speed=0.0106x elapsed=0:04:04.90    \nframe=  158 fps=0.6 q=45.1 size=     256KiB time=00:00:02.60 bitrate= 806.7kbits/s speed=0.0106x elapsed=0:04:05.47    \nframe=  159 fps=0.6 q=47.7 size=     256KiB time=00:00:02.61 bitrate= 801.6kbits/s speed=0.0106x elapsed=0:04:06.02    \nframe=  159 fps=0.6 q=47.7 size=     256KiB time=00:00:02.61 bitrate= 801.6kbits/s speed=0.0106x elapsed=0:04:06.56    \nframe=  161 fps=0.7 q=41.8 size=     256KiB time=00:00:02.65 bitrate= 791.5kbits/s speed=0.0107x elapsed=0:04:07.12    \nframe=  161 fps=0.7 q=41.8 size=     256KiB time=00:00:02.65 bitrate= 791.5kbits/s speed=0.0107x elapsed=0:04:07.64    \nframe=  161 fps=0.6 q=41.8 size=     256KiB time=00:00:02.65 bitrate= 791.5kbits/s speed=0.0107x elapsed=0:04:08.15    \nframe=  163 fps=0.7 q=47.5 size=     256KiB time=00:00:02.68 bitrate= 781.7kbits/s speed=0.0108x elapsed=0:04:08.71    \nframe=  164 fps=0.7 q=47.8 size=     256KiB time=00:00:02.70 bitrate= 776.9kbits/s speed=0.0108x elapsed=0:04:09.24    \nframe=  165 fps=0.7 q=42.1 size=     256KiB time=00:00:02.71 bitrate= 772.1kbits/s speed=0.0109x elapsed=0:04:09.75    \nframe=  166 fps=0.7 q=45.2 size=     256KiB time=00:00:02.73 bitrate= 767.4kbits/s speed=0.0109x elapsed=0:04:10.27    \nframe=  166 fps=0.7 q=45.2 size=     256KiB time=00:00:02.73 bitrate= 767.4kbits/s speed=0.0109x elapsed=0:04:10.78    \nframe=  166 fps=0.7 q=45.2 size=     256KiB time=00:00:02.73 bitrate= 767.4kbits/s speed=0.0109x elapsed=0:04:11.29    \nframe=  167 fps=0.7 q=47.6 size=     256KiB time=00:00:02.75 bitrate= 762.7kbits/s speed=0.0109x elapsed=0:04:11.87    \nframe=  168 fps=0.7 q=47.4 size=     256KiB time=00:00:02.76 bitrate= 758.1kbits/s speed=0.011x elapsed=0:04:12.40    \nframe=  168 fps=0.7 q=47.4 size=     256KiB time=00:00:02.76 bitrate= 758.1kbits/s speed=0.0109x elapsed=0:04:12.91    \nframe=  169 fps=0.7 q=42.2 size=     256KiB time=00:00:02.78 bitrate= 753.6kbits/s speed=0.011x elapsed=0:04:13.46    \nframe=  170 fps=0.7 q=45.3 size=     256KiB time=00:00:02.78 bitrate= 753.6kbits/s speed=0.011x elapsed=0:04:13.99    \nframe=  170 fps=0.7 q=45.3 size=     256KiB time=00:00:02.80 bitrate= 749.1kbits/s speed=0.011x elapsed=0:04:14.60    \nframe=  172 fps=0.7 q=47.6 size=     256KiB time=00:00:02.83 bitrate= 740.3kbits/s speed=0.0111x elapsed=0:04:15.13    \nframe=  172 fps=0.7 q=47.6 size=     256KiB time=00:00:02.83 bitrate= 740.3kbits/s speed=0.0111x elapsed=0:04:15.69    \nframe=  173 fps=0.7 q=42.9 size=     256KiB time=00:00:02.85 bitrate= 736.0kbits/s speed=0.0111x elapsed=0:04:16.25    \nframe=  173 fps=0.7 q=42.9 size=     256KiB time=00:00:02.85 bitrate= 736.0kbits/s speed=0.0111x elapsed=0:04:16.83    \nframe=  173 fps=0.7 q=42.9 size=     256KiB time=00:00:02.85 bitrate= 736.0kbits/s speed=0.0111x elapsed=0:04:17.38    \nframe=  175 fps=0.7 q=47.5 size=     256KiB time=00:00:02.88 bitrate= 727.5kbits/s speed=0.0112x elapsed=0:04:17.89    \nframe=  177 fps=0.7 q=42.3 size=     256KiB time=00:00:02.91 bitrate= 719.1kbits/s speed=0.0113x elapsed=0:04:18.42    \nframe=  178 fps=0.7 q=44.8 size=     256KiB time=00:00:02.93 bitrate= 715.1kbits/s speed=0.0113x elapsed=0:04:18.98    \nframe=  178 fps=0.7 q=44.8 size=     256KiB time=00:00:02.93 bitrate= 715.1kbits/s speed=0.0113x elapsed=0:04:19.51    \nframe=  178 fps=0.7 q=44.8 size=     256KiB time=00:00:02.93 bitrate= 715.1kbits/s speed=0.0113x elapsed=0:04:20.03    \nframe=  179 fps=0.7 q=47.3 size=     256KiB time=00:00:02.95 bitrate= 711.0kbits/s speed=0.0113x elapsed=0:04:20.55    \nframe=  180 fps=0.7 q=47.4 size=     256KiB time=00:00:02.96 bitrate= 707.0kbits/s speed=0.0114x elapsed=0:04:21.07    \nframe=  181 fps=0.7 q=43.1 size=     256KiB time=00:00:02.98 bitrate= 703.1kbits/s speed=0.0114x elapsed=0:04:21.60    \nframe=  182 fps=0.7 q=45.3 size=     256KiB time=00:00:03.00 bitrate= 699.2kbits/s speed=0.0114x elapsed=0:04:22.15    \nframe=  184 fps=0.7 q=47.7 size=     256KiB time=00:00:03.01 bitrate= 695.3kbits/s speed=0.0115x elapsed=0:04:22.73    \nframe=  184 fps=0.7 q=47.7 size=     256KiB time=00:00:03.03 bitrate= 691.5kbits/s speed=0.0115x elapsed=0:04:23.30    \nframe=  185 fps=0.7 q=42.3 size=     256KiB time=00:00:03.05 bitrate= 687.7kbits/s speed=0.0116x elapsed=0:04:23.83    \nframe=  185 fps=0.7 q=42.3 size=     256KiB time=00:00:03.05 bitrate= 687.7kbits/s speed=0.0115x elapsed=0:04:24.35    \nframe=  186 fps=0.7 q=45.0 size=     256KiB time=00:00:03.06 bitrate= 684.0kbits/s speed=0.0116x elapsed=0:04:24.88    \nframe=  188 fps=0.7 q=47.6 size=     256KiB time=00:00:03.10 bitrate= 676.6kbits/s speed=0.0117x elapsed=0:04:25.46    \nframe=  188 fps=0.7 q=47.6 size=     256KiB time=00:00:03.10 bitrate= 676.6kbits/s speed=0.0117x elapsed=0:04:25.98    \nframe=  189 fps=0.7 q=42.6 size=     256KiB time=00:00:03.11 bitrate= 673.0kbits/s speed=0.0117x elapsed=0:04:26.50    \nframe=  191 fps=0.7 q=47.5 size=     256KiB time=00:00:03.15 bitrate= 665.9kbits/s speed=0.0118x elapsed=0:04:27.02    \nframe=  191 fps=0.7 q=47.5 size=     256KiB time=00:00:03.15 bitrate= 665.9kbits/s speed=0.0118x elapsed=0:04:27.54    \nframe=  192 fps=0.7 q=47.8 size=     256KiB time=00:00:03.16 bitrate= 662.4kbits/s speed=0.0118x elapsed=0:04:28.07    \nframe=  192 fps=0.7 q=47.8 size=     256KiB time=00:00:03.16 bitrate= 662.4kbits/s speed=0.0118x elapsed=0:04:28.60    \nframe=  193 fps=0.7 q=42.6 size=     256KiB time=00:00:03.18 bitrate= 658.9kbits/s speed=0.0118x elapsed=0:04:29.12    \nframe=  194 fps=0.7 q=45.9 size=     256KiB time=00:00:03.20 bitrate= 655.5kbits/s speed=0.0119x elapsed=0:04:29.63    \nframe=  196 fps=0.7 q=47.1 size=     256KiB time=00:00:03.23 bitrate= 648.7kbits/s speed=0.012x elapsed=0:04:30.15    \nframe=  197 fps=0.7 q=47.7 size=     256KiB time=00:00:03.25 bitrate= 645.4kbits/s speed=0.012x elapsed=0:04:30.67    \nframe=  197 fps=0.7 q=47.7 size=     256KiB time=00:00:03.25 bitrate= 645.4kbits/s speed=0.012x elapsed=0:04:31.19    \nframe=  198 fps=0.7 q=42.8 size=     256KiB time=00:00:03.26 bitrate= 642.1kbits/s speed=0.012x elapsed=0:04:31.75    \nframe=  198 fps=0.7 q=42.8 size=     256KiB time=00:00:03.26 bitrate= 642.1kbits/s speed=0.012x elapsed=0:04:32.28    \nframe=  200 fps=0.7 q=47.6 size=     256KiB time=00:00:03.30 bitrate= 635.6kbits/s speed=0.0121x elapsed=0:04:32.81    \nframe=  201 fps=0.7 q=47.6 size=     256KiB time=00:00:03.31 bitrate= 632.4kbits/s speed=0.0121x elapsed=0:04:33.34    \nframe=  201 fps=0.7 q=47.6 size=     256KiB time=00:00:03.31 bitrate= 632.4kbits/s speed=0.0121x elapsed=0:04:33.86    \nframe=  203 fps=0.7 q=45.6 size=     256KiB time=00:00:03.35 bitrate= 626.1kbits/s speed=0.0122x elapsed=0:04:34.38    \nframe=  204 fps=0.7 q=47.7 size=     256KiB time=00:00:03.36 bitrate= 623.0kbits/s speed=0.0122x elapsed=0:04:34.91    \nframe=  205 fps=0.7 q=43.0 size=     256KiB time=00:00:03.38 bitrate= 620.0kbits/s speed=0.0123x elapsed=0:04:35.44    \nframe=  206 fps=0.7 q=46.2 size=     256KiB time=00:00:03.38 bitrate= 620.0kbits/s speed=0.0123x elapsed=0:04:35.96    \nframe=  207 fps=0.7 q=47.6 size=     256KiB time=00:00:03.41 bitrate= 613.9kbits/s speed=0.0124x elapsed=0:04:36.52    \nframe=  207 fps=0.7 q=47.6 size=     256KiB time=00:00:03.41 bitrate= 613.9kbits/s speed=0.0123x elapsed=0:04:37.06    \nframe=  208 fps=0.7 q=48.2 size=     256KiB time=00:00:03.43 bitrate= 610.9kbits/s speed=0.0124x elapsed=0:04:37.60    \nframe=  208 fps=0.7 q=48.2 size=     256KiB time=00:00:03.43 bitrate= 610.9kbits/s speed=0.0123x elapsed=0:04:38.12    \nframe=  208 fps=0.7 q=48.2 size=     256KiB time=00:00:03.43 bitrate= 610.9kbits/s speed=0.0123x elapsed=0:04:38.65    \nframe=  209 fps=0.7 q=43.6 size=     256KiB time=00:00:03.45 bitrate= 608.0kbits/s speed=0.0124x elapsed=0:04:39.20    \nframe=  210 fps=0.8 q=47.0 size=     256KiB time=00:00:03.46 bitrate= 605.0kbits/s speed=0.0124x elapsed=0:04:39.71    \nframe=  211 fps=0.8 q=48.3 size=     256KiB time=00:00:03.48 bitrate= 602.2kbits/s speed=0.0124x elapsed=0:04:40.21    \nframe=  212 fps=0.8 q=48.7 size=     256KiB time=00:00:03.50 bitrate= 599.3kbits/s speed=0.0125x elapsed=0:04:40.75    \nframe=  213 fps=0.8 q=44.1 size=     256KiB time=00:00:03.51 bitrate= 596.4kbits/s speed=0.0125x elapsed=0:04:41.26    \nframe=  213 fps=0.8 q=44.1 size=     256KiB time=00:00:03.51 bitrate= 596.4kbits/s speed=0.0125x elapsed=0:04:41.79    \nframe=  213 fps=0.8 q=44.1 size=     256KiB time=00:00:03.51 bitrate= 596.4kbits/s speed=0.0125x elapsed=0:04:42.34    \nframe=  213 fps=0.8 q=44.1 size=     256KiB time=00:00:03.51 bitrate= 596.4kbits/s speed=0.0124x elapsed=0:04:42.85    \nframe=  214 fps=0.8 q=47.6 size=     256KiB time=00:00:03.53 bitrate= 593.6kbits/s speed=0.0125x elapsed=0:04:43.37    \nframe=  215 fps=0.8 q=49.6 size=     256KiB time=00:00:03.55 bitrate= 590.8kbits/s speed=0.0125x elapsed=0:04:43.89    \nframe=  215 fps=0.8 q=49.6 size=     256KiB time=00:00:03.55 bitrate= 590.8kbits/s speed=0.0125x elapsed=0:04:44.46    \nframe=  215 fps=0.8 q=49.6 size=     256KiB time=00:00:03.55 bitrate= 590.8kbits/s speed=0.0125x elapsed=0:04:45.03    \nframe=  216 fps=0.8 q=49.4 size=     256KiB time=00:00:03.56 bitrate= 588.1kbits/s speed=0.0125x elapsed=0:04:45.58    \nframe=  216 fps=0.8 q=49.4 size=     256KiB time=00:00:03.56 bitrate= 588.1kbits/s speed=0.0125x elapsed=0:04:46.09    \nframe=  217 fps=0.8 q=44.9 size=     256KiB time=00:00:03.58 bitrate= 585.4kbits/s speed=0.0125x elapsed=0:04:46.60    \nframe=  218 fps=0.8 q=48.4 size=     256KiB time=00:00:03.60 bitrate= 582.6kbits/s speed=0.0125x elapsed=0:04:47.13    \nframe=  218 fps=0.8 q=48.4 size=     256KiB time=00:00:03.60 bitrate= 582.6kbits/s speed=0.0125x elapsed=0:04:47.67    \nframe=  219 fps=0.8 q=49.7 size=     256KiB time=00:00:03.61 bitrate= 580.0kbits/s speed=0.0125x elapsed=0:04:48.20    \nframe=  220 fps=0.8 q=50.2 size=     256KiB time=00:00:03.63 bitrate= 577.3kbits/s speed=0.0126x elapsed=0:04:48.74    \nframe=  221 fps=0.8 q=45.5 size=     256KiB time=00:00:03.65 bitrate= 574.7kbits/s speed=0.0126x elapsed=0:04:49.26    \nframe=  221 fps=0.8 q=45.5 size=     256KiB time=00:00:03.65 bitrate= 574.7kbits/s speed=0.0126x elapsed=0:04:49.79    \nframe=  222 fps=0.8 q=48.7 size=     256KiB time=00:00:03.66 bitrate= 572.0kbits/s speed=0.0126x elapsed=0:04:50.31    \nframe=  223 fps=0.8 q=50.1 size=     256KiB time=00:00:03.68 bitrate= 569.5kbits/s speed=0.0127x elapsed=0:04:50.85    \nframe=  224 fps=0.8 q=50.5 size=     256KiB time=00:00:03.70 bitrate= 566.9kbits/s speed=0.0127x elapsed=0:04:51.38    \nframe=  224 fps=0.8 q=50.5 size=     256KiB time=00:00:03.70 bitrate= 566.9kbits/s speed=0.0127x elapsed=0:04:51.94    \nframe=  224 fps=0.8 q=50.5 size=     256KiB time=00:00:03.70 bitrate= 566.9kbits/s speed=0.0127x elapsed=0:04:52.47    \nframe=  225 fps=0.8 q=46.1 size=     256KiB time=00:00:03.71 bitrate= 564.4kbits/s speed=0.0127x elapsed=0:04:53.07    \nframe=  226 fps=0.8 q=49.1 size=     256KiB time=00:00:03.73 bitrate= 561.8kbits/s speed=0.0127x elapsed=0:04:53.63    \nframe=  227 fps=0.8 q=50.3 size=     256KiB time=00:00:03.75 bitrate= 559.3kbits/s speed=0.0127x elapsed=0:04:54.16    \nframe=  227 fps=0.8 q=50.3 size=     256KiB time=00:00:03.75 bitrate= 559.3kbits/s speed=0.0127x elapsed=0:04:54.69    \nframe=  228 fps=0.8 q=46.4 size=     256KiB time=00:00:03.76 bitrate= 556.9kbits/s speed=0.0128x elapsed=0:04:55.21    \nframe=  229 fps=0.8 q=50.1 size=     256KiB time=00:00:03.78 bitrate= 554.4kbits/s speed=0.0128x elapsed=0:04:55.74    \nframe=  229 fps=0.8 q=50.1 size=     256KiB time=00:00:03.78 bitrate= 554.4kbits/s speed=0.0128x elapsed=0:04:56.29    \nframe=  230 fps=0.8 q=50.9 size=     256KiB time=00:00:03.80 bitrate= 552.0kbits/s speed=0.0128x elapsed=0:04:56.83    \nframe=  230 fps=0.8 q=50.9 size=     256KiB time=00:00:03.80 bitrate= 552.0kbits/s speed=0.0128x elapsed=0:04:57.37    \nframe=  231 fps=0.8 q=46.3 size=     256KiB time=00:00:03.81 bitrate= 549.6kbits/s speed=0.0128x elapsed=0:04:57.91    \nframe=  231 fps=0.8 q=46.3 size=     256KiB time=00:00:03.81 bitrate= 549.6kbits/s speed=0.0128x elapsed=0:04:58.47    \nframe=  232 fps=0.8 q=49.8 size=     256KiB time=00:00:03.83 bitrate= 547.2kbits/s speed=0.0128x elapsed=0:04:59.01    \nframe=  233 fps=0.8 q=50.6 size=     256KiB time=00:00:03.85 bitrate= 544.8kbits/s speed=0.0129x elapsed=0:04:59.55    \nframe=  233 fps=0.8 q=50.6 size=     256KiB time=00:00:03.85 bitrate= 544.8kbits/s speed=0.0128x elapsed=0:05:00.11    \nframe=  234 fps=0.8 q=45.4 size=     256KiB time=00:00:03.86 bitrate= 542.5kbits/s speed=0.0129x elapsed=0:05:00.65    \nframe=  234 fps=0.8 q=45.4 size=     256KiB time=00:00:03.86 bitrate= 542.5kbits/s speed=0.0128x elapsed=0:05:01.17    \nframe=  235 fps=0.8 q=49.8 size=     256KiB time=00:00:03.88 bitrate= 540.1kbits/s speed=0.0129x elapsed=0:05:01.71    \nframe=  236 fps=0.8 q=50.7 size=     256KiB time=00:00:03.90 bitrate= 537.8kbits/s speed=0.0129x elapsed=0:05:02.26    \nframe=  236 fps=0.8 q=50.7 size=     256KiB time=00:00:03.90 bitrate= 537.8kbits/s speed=0.0129x elapsed=0:05:02.79    \nframe=  237 fps=0.8 q=46.2 size=     256KiB time=00:00:03.91 bitrate= 535.5kbits/s speed=0.0129x elapsed=0:05:03.31    \nframe=  238 fps=0.8 q=50.0 size=     256KiB time=00:00:03.93 bitrate= 533.3kbits/s speed=0.0129x elapsed=0:05:03.83    \nframe=  238 fps=0.8 q=50.0 size=     256KiB time=00:00:03.93 bitrate= 533.3kbits/s speed=0.0129x elapsed=0:05:04.35    \nframe=  239 fps=0.8 q=50.7 size=     256KiB time=00:00:03.95 bitrate= 531.0kbits/s speed=0.013x elapsed=0:05:04.87    \nframe=  239 fps=0.8 q=50.7 size=     256KiB time=00:00:03.95 bitrate= 531.0kbits/s speed=0.0129x elapsed=0:05:05.40    \nframe=  240 fps=0.8 q=45.7 size=     256KiB time=00:00:03.96 bitrate= 528.8kbits/s speed=0.013x elapsed=0:05:05.91    \nframe=  241 fps=0.8 q=50.0 size=     512KiB time=00:00:03.98 bitrate=1053.1kbits/s speed=0.013x elapsed=0:05:06.44    \nframe=  242 fps=0.8 q=45.3 size=     512KiB time=00:00:04.00 bitrate=1048.7kbits/s speed=0.013x elapsed=0:05:06.96    \nframe=  243 fps=0.8 q=49.0 size=     512KiB time=00:00:04.01 bitrate=1044.3kbits/s speed=0.0131x elapsed=0:05:07.49    \nframe=  243 fps=0.8 q=49.0 size=     512KiB time=00:00:04.01 bitrate=1044.3kbits/s speed=0.013x elapsed=0:05:08.02    \nframe=  243 fps=0.8 q=49.0 size=     512KiB time=00:00:04.01 bitrate=1044.3kbits/s speed=0.013x elapsed=0:05:08.53    \nframe=  244 fps=0.8 q=50.6 size=     512KiB time=00:00:04.03 bitrate=1040.0kbits/s speed=0.0131x elapsed=0:05:09.05    \nframe=  245 fps=0.8 q=44.9 size=     512KiB time=00:00:04.05 bitrate=1035.7kbits/s speed=0.0131x elapsed=0:05:09.57    \nframe=  246 fps=0.8 q=49.3 size=     512KiB time=00:00:04.06 bitrate=1031.5kbits/s speed=0.0131x elapsed=0:05:10.10    \nframe=  247 fps=0.8 q=50.6 size=     512KiB time=00:00:04.08 bitrate=1027.3kbits/s speed=0.0131x elapsed=0:05:10.62    \nframe=  247 fps=0.8 q=50.6 size=     512KiB time=00:00:04.08 bitrate=1027.3kbits/s speed=0.0131x elapsed=0:05:11.15    \nframe=  247 fps=0.8 q=50.6 size=     512KiB time=00:00:04.08 bitrate=1027.3kbits/s speed=0.0131x elapsed=0:05:11.69    \nframe=  247 fps=0.8 q=50.6 size=     512KiB time=00:00:04.08 bitrate=1027.3kbits/s speed=0.0131x elapsed=0:05:12.22    \nframe=  248 fps=0.8 q=44.7 size=     512KiB time=00:00:04.10 bitrate=1023.1kbits/s speed=0.0131x elapsed=0:05:12.73    \nframe=  249 fps=0.8 q=49.1 size=     512KiB time=00:00:04.11 bitrate=1018.9kbits/s speed=0.0131x elapsed=0:05:13.26    \nframe=  250 fps=0.8 q=50.3 size=     512KiB time=00:00:04.13 bitrate=1014.8kbits/s speed=0.0132x elapsed=0:05:13.80    \nframe=  250 fps=0.8 q=50.3 size=     512KiB time=00:00:04.13 bitrate=1014.8kbits/s speed=0.0131x elapsed=0:05:14.33    \nframe=  251 fps=0.8 q=42.4 size=     512KiB time=00:00:04.15 bitrate=1010.8kbits/s speed=0.0132x elapsed=0:05:14.88    \nframe=  251 fps=0.8 q=42.4 size=     512KiB time=00:00:04.15 bitrate=1010.8kbits/s speed=0.0132x elapsed=0:05:15.40    \nframe=  252 fps=0.8 q=43.4 size=     512KiB time=00:00:04.16 bitrate=1006.7kbits/s speed=0.0132x elapsed=0:05:15.94    \nframe=  252 fps=0.8 q=43.4 size=     512KiB time=00:00:04.16 bitrate=1006.7kbits/s speed=0.0132x elapsed=0:05:16.46    \nframe=  253 fps=0.8 q=46.4 size=     512KiB time=00:00:04.18 bitrate=1002.7kbits/s speed=0.0132x elapsed=0:05:17.00    \nframe=  254 fps=0.8 q=49.5 size=     512KiB time=00:00:04.20 bitrate= 998.7kbits/s speed=0.0132x elapsed=0:05:17.52    \nframe=  254 fps=0.8 q=49.5 size=     512KiB time=00:00:04.20 bitrate= 998.7kbits/s speed=0.0132x elapsed=0:05:18.06    \nframe=  256 fps=0.8 q=49.3 size=     512KiB time=00:00:04.21 bitrate= 994.8kbits/s speed=0.0132x elapsed=0:05:18.59    \nframe=  257 fps=0.8 q=42.8 size=     512KiB time=00:00:04.25 bitrate= 987.0kbits/s speed=0.0133x elapsed=0:05:19.12    \nframe=  257 fps=0.8 q=42.8 size=     512KiB time=00:00:04.25 bitrate= 987.0kbits/s speed=0.0133x elapsed=0:05:19.65    \nframe=  257 fps=0.8 q=42.8 size=     512KiB time=00:00:04.25 bitrate= 987.0kbits/s speed=0.0133x elapsed=0:05:20.16    \nframe=  258 fps=0.8 q=46.4 size=     512KiB time=00:00:04.26 bitrate= 983.1kbits/s speed=0.0133x elapsed=0:05:20.68    \nframe=  260 fps=0.8 q=48.2 size=     512KiB time=00:00:04.30 bitrate= 975.5kbits/s speed=0.0134x elapsed=0:05:21.20    \nframe=  260 fps=0.8 q=48.2 size=     512KiB time=00:00:04.30 bitrate= 975.5kbits/s speed=0.0134x elapsed=0:05:21.72    \nframe=  260 fps=0.8 q=48.2 size=     512KiB time=00:00:04.30 bitrate= 975.5kbits/s speed=0.0133x elapsed=0:05:22.23    \nframe=  261 fps=0.8 q=42.6 size=     512KiB time=00:00:04.31 bitrate= 971.7kbits/s speed=0.0134x elapsed=0:05:22.76    \nframe=  262 fps=0.8 q=46.0 size=     512KiB time=00:00:04.33 bitrate= 968.0kbits/s speed=0.0134x elapsed=0:05:23.28    \nframe=  262 fps=0.8 q=46.0 size=     512KiB time=00:00:04.33 bitrate= 968.0kbits/s speed=0.0134x elapsed=0:05:23.80    \nframe=  263 fps=0.8 q=48.3 size=     512KiB time=00:00:04.35 bitrate= 964.3kbits/s speed=0.0134x elapsed=0:05:24.31    \nframe=  263 fps=0.8 q=48.3 size=     512KiB time=00:00:04.35 bitrate= 964.3kbits/s speed=0.0134x elapsed=0:05:24.87    \nframe=  264 fps=0.8 q=48.3 size=     512KiB time=00:00:04.36 bitrate= 960.6kbits/s speed=0.0134x elapsed=0:05:25.38    \nframe=  265 fps=0.8 q=42.3 size=     512KiB time=00:00:04.38 bitrate= 957.0kbits/s speed=0.0135x elapsed=0:05:25.89    \nframe=  266 fps=0.8 q=45.4 size=     512KiB time=00:00:04.40 bitrate= 953.3kbits/s speed=0.0135x elapsed=0:05:26.40    \nframe=  267 fps=0.8 q=48.1 size=     512KiB time=00:00:04.41 bitrate= 949.7kbits/s speed=0.0135x elapsed=0:05:26.92    \nframe=  268 fps=0.8 q=48.0 size=     512KiB time=00:00:04.43 bitrate= 946.2kbits/s speed=0.0135x elapsed=0:05:27.45    \nframe=  270 fps=0.8 q=45.4 size=     512KiB time=00:00:04.46 bitrate= 939.1kbits/s speed=0.0136x elapsed=0:05:27.97    \nframe=  270 fps=0.8 q=45.4 size=     512KiB time=00:00:04.46 bitrate= 939.1kbits/s speed=0.0136x elapsed=0:05:28.48    \nframe=  271 fps=0.8 q=48.2 size=     512KiB time=00:00:04.48 bitrate= 935.6kbits/s speed=0.0136x elapsed=0:05:29.01    \nframe=  272 fps=0.8 q=48.4 size=     512KiB time=00:00:04.50 bitrate= 932.1kbits/s speed=0.0137x elapsed=0:05:29.53    \nframe=  273 fps=0.8 q=42.7 size=     512KiB time=00:00:04.51 bitrate= 928.7kbits/s speed=0.0137x elapsed=0:05:30.06    \nframe=  273 fps=0.8 q=42.7 size=     512KiB time=00:00:04.51 bitrate= 928.7kbits/s speed=0.0137x elapsed=0:05:30.58    \nframe=  273 fps=0.8 q=42.7 size=     512KiB time=00:00:04.51 bitrate= 928.7kbits/s speed=0.0136x elapsed=0:05:31.10    \nframe=  275 fps=0.8 q=48.6 size=     512KiB time=00:00:04.55 bitrate= 921.9kbits/s speed=0.0137x elapsed=0:05:31.61    \nframe=  276 fps=0.8 q=48.5 size=     512KiB time=00:00:04.56 bitrate= 918.5kbits/s speed=0.0137x elapsed=0:05:32.13    \nframe=  277 fps=0.8 q=43.1 size=     512KiB time=00:00:04.58 bitrate= 915.2kbits/s speed=0.0138x elapsed=0:05:32.64    \nframe=  278 fps=0.8 q=45.1 size=     512KiB time=00:00:04.60 bitrate= 911.9kbits/s speed=0.0138x elapsed=0:05:33.15    \nframe=  280 fps=0.8 q=47.8 size=     512KiB time=00:00:04.63 bitrate= 905.3kbits/s speed=0.0139x elapsed=0:05:33.68    \nframe=  280 fps=0.8 q=47.8 size=     512KiB time=00:00:04.63 bitrate= 905.3kbits/s speed=0.0139x elapsed=0:05:34.20    \nframe=  281 fps=0.8 q=42.7 size=     512KiB time=00:00:04.65 bitrate= 902.1kbits/s speed=0.0139x elapsed=0:05:34.71    \nframe=  282 fps=0.8 q=45.5 size=     512KiB time=00:00:04.66 bitrate= 898.9kbits/s speed=0.0139x elapsed=0:05:35.23    \nframe=  283 fps=0.8 q=48.1 size=     512KiB time=00:00:04.68 bitrate= 895.7kbits/s speed=0.0139x elapsed=0:05:35.78    \nframe=  285 fps=0.8 q=43.3 size=     512KiB time=00:00:04.70 bitrate= 892.5kbits/s speed=0.014x elapsed=0:05:36.30    \nframe=  285 fps=0.8 q=43.3 size=     512KiB time=00:00:04.71 bitrate= 889.3kbits/s speed=0.014x elapsed=0:05:36.83    \nframe=  286 fps=0.8 q=45.6 size=     512KiB time=00:00:04.73 bitrate= 886.2kbits/s speed=0.014x elapsed=0:05:37.35    \nframe=  286 fps=0.8 q=45.6 size=     512KiB time=00:00:04.73 bitrate= 886.2kbits/s speed=0.014x elapsed=0:05:37.87    \nframe=  286 fps=0.8 q=45.6 size=     512KiB time=00:00:04.73 bitrate= 886.2kbits/s speed=0.014x elapsed=0:05:38.39    \nframe=  289 fps=0.9 q=43.0 size=     512KiB time=00:00:04.78 bitrate= 876.9kbits/s speed=0.0141x elapsed=0:05:38.90    \nframe=  289 fps=0.9 q=43.0 size=     512KiB time=00:00:04.78 bitrate= 876.9kbits/s speed=0.0141x elapsed=0:05:39.42    \nframe=  290 fps=0.9 q=45.7 size=     512KiB time=00:00:04.80 bitrate= 873.9kbits/s speed=0.0141x elapsed=0:05:39.94    \nframe=  291 fps=0.9 q=47.6 size=     512KiB time=00:00:04.81 bitrate= 870.9kbits/s speed=0.0141x elapsed=0:05:40.47    \nframe=  292 fps=0.9 q=47.8 size=     512KiB time=00:00:04.83 bitrate= 867.9kbits/s speed=0.0142x elapsed=0:05:40.99    \nframe=  293 fps=0.9 q=43.2 size=     512KiB time=00:00:04.85 bitrate= 864.9kbits/s speed=0.0142x elapsed=0:05:41.50    \nframe=  294 fps=0.9 q=45.9 size=     512KiB time=00:00:04.86 bitrate= 861.9kbits/s speed=0.0142x elapsed=0:05:42.04    \nframe=  296 fps=0.9 q=47.8 size=     512KiB time=00:00:04.90 bitrate= 856.1kbits/s speed=0.0143x elapsed=0:05:42.56    \nframe=  296 fps=0.9 q=47.8 size=     512KiB time=00:00:04.90 bitrate= 856.1kbits/s speed=0.0143x elapsed=0:05:43.07    \nframe=  297 fps=0.9 q=44.8 size=     512KiB time=00:00:04.91 bitrate= 853.2kbits/s speed=0.0143x elapsed=0:05:43.59    \nframe=  297 fps=0.9 q=44.8 size=     512KiB time=00:00:04.91 bitrate= 853.2kbits/s speed=0.0143x elapsed=0:05:44.11    \nframe=  298 fps=0.9 q=45.7 size=     512KiB time=00:00:04.93 bitrate= 850.3kbits/s speed=0.0143x elapsed=0:05:44.62    \n[mp4 @ 00000263aaf6aa40] Starting second pass: moving the moov atom to the beginning of the file\n[out#0/mp4 @ 00000263ab89e040] video:622KiB audio:0KiB subtitle:0KiB other streams:0KiB global headers:2KiB muxing overhead: 1.125916%\nframe=  300 fps=0.9 q=47.8 Lsize=     629KiB time=00:00:04.96 bitrate=1037.3kbits/s speed=0.0144x elapsed=0:05:45.12    \nx265 [info]: frame I:      2, Avg QP:44.22  kb/s: 3350.40 \nx265 [info]: frame P:     76, Avg QP:42.88  kb/s: 2065.54 \nx265 [info]: frame B:    222, Avg QP:47.00  kb/s: 637.00  \nx265 [info]: Weighted P-Frames: Y:0.0% UV:0.0%\n\nencoded 300 frames in 343.67s (0.87 fps), 1016.98 kb/s, Avg QP:45.93\n",
  "seconds": 345.486998796463,
  "probe_out": {}
}